<?xml version="1.0" encoding="UTF-8"?>
<svg version="1.1" xmlns="http://www.w3.org/2000/svg" viewbox="0 0 512 512">
<path d="M0 0 C0.96988861 0.00182281 1.93977722 0.00364563 2.9390564 0.00552368 C17.29056055 0.05091691 31.25442918 0.5562653 45.375 3.3125 C46.72053955 3.55395752 46.72053955 3.55395752 48.09326172 3.80029297 C96.78093124 12.61028149 141.80505908 36.05356547 177.375 70.3125 C178.3640332 71.26068604 178.3640332 71.26068604 179.37304688 72.22802734 C188.86130305 81.37247479 197.6012044 90.66984009 205.375 101.3125 C206.23306152 102.46355017 207.09113451 103.61459177 207.94921875 104.765625 C213.98677396 112.95525981 219.36957302 121.45788276 224.375 130.3125 C224.7771875 131.01971191 225.179375 131.72692383 225.59375 132.45556641 C240.31504051 158.60310856 250.01421333 187.62416442 254.375 217.3125 C254.55232666 218.51712891 254.72965332 219.72175781 254.91235352 220.96289062 C256.51132494 232.6201731 256.73340972 244.18436066 256.6875 255.9375 C256.68476578 257.39183441 256.68476578 257.39183441 256.68197632 258.87554932 C256.63662737 273.20729259 256.21795422 287.22145512 253.375 301.3125 C253.19807617 302.21436035 253.02115234 303.1162207 252.83886719 304.04541016 C251.54002189 310.51832573 250.03323805 316.92270862 248.375 323.3125 C248.16004883 324.14313965 247.94509766 324.9737793 247.72363281 325.82958984 C236.99088092 366.29800039 215.34940378 403.22931601 186.375 433.3125 C185.74287598 433.97185547 185.11075195 434.63121094 184.45947266 435.31054688 C175.31502521 444.79880305 166.01765991 453.5387044 155.375 461.3125 C154.22394983 462.17056152 153.07290823 463.02863451 151.921875 463.88671875 C143.73069386 469.92486829 135.21695895 475.28345521 126.375 480.3125 C125.74319824 480.67698242 125.11139648 481.04146484 124.46044922 481.41699219 C98.43104716 496.31535669 69.01389511 505.95897542 39.375 510.3125 C38.17037109 510.48982666 36.96574219 510.66715332 35.72460938 510.84985352 C24.0673269 512.44882494 12.50313934 512.67090972 0.75 512.625 C-0.21955627 512.62317719 -1.18911255 512.62135437 -2.18804932 512.61947632 C-16.51979259 512.57412737 -30.53395512 512.15545422 -44.625 509.3125 C-45.52686035 509.13557617 -46.4287207 508.95865234 -47.35791016 508.77636719 C-53.83082573 507.47752189 -60.23520862 505.97073805 -66.625 504.3125 C-67.45563965 504.09754883 -68.2862793 503.88259766 -69.14208984 503.66113281 C-109.61050039 492.92838092 -146.54181601 471.28690378 -176.625 442.3125 C-177.28435547 441.68037598 -177.94371094 441.04825195 -178.62304688 440.39697266 C-188.11130305 431.25252521 -196.8512044 421.95515991 -204.625 411.3125 C-205.48306152 410.16144983 -206.34113451 409.01040823 -207.19921875 407.859375 C-213.23736829 399.66819386 -218.59595521 391.15445895 -223.625 382.3125 C-223.98948242 381.68069824 -224.35396484 381.04889648 -224.72949219 380.39794922 C-239.62785669 354.36854716 -249.27147542 324.95139511 -253.625 295.3125 C-253.80232666 294.10787109 -253.97965332 292.90324219 -254.16235352 291.66210938 C-255.761325 280.00482646 -255.9834053 268.44063902 -255.9375 256.6875 C-255.93567719 255.71761139 -255.93385437 254.74772278 -255.93197632 253.7484436 C-255.88658309 239.39693945 -255.3812347 225.43307082 -252.625 211.3125 C-252.38354248 209.96696045 -252.38354248 209.96696045 -252.13720703 208.59423828 C-243.32721851 159.90656876 -219.88393453 114.88244092 -185.625 79.3125 C-184.99287598 78.65314453 -184.36075195 77.99378906 -183.70947266 77.31445312 C-174.56502521 67.82619695 -165.26765991 59.0862956 -154.625 51.3125 C-153.47394983 50.45443848 -152.32290823 49.59636549 -151.171875 48.73828125 C-142.98069386 42.70013171 -134.46695895 37.34154479 -125.625 32.3125 C-124.99319824 31.94801758 -124.36139648 31.58353516 -123.71044922 31.20800781 C-97.68104716 16.30964331 -68.26389511 6.66602458 -38.625 2.3125 C-37.42037109 2.13517334 -36.21574219 1.95784668 -34.97460938 1.77514648 C-23.31732646 0.176175 -11.75313902 -0.0459053 0 0 Z " fill="#ECEAFC" transform="translate(255.625,-0.3125)"/>
<path d="M0 0 C0.96988861 0.00182281 1.93977722 0.00364563 2.9390564 0.00552368 C17.29056055 0.05091691 31.25442918 0.5562653 45.375 3.3125 C46.72053955 3.55395752 46.72053955 3.55395752 48.09326172 3.80029297 C96.78093124 12.61028149 141.80505908 36.05356547 177.375 70.3125 C178.3640332 71.26068604 178.3640332 71.26068604 179.37304688 72.22802734 C188.86130305 81.37247479 197.6012044 90.66984009 205.375 101.3125 C206.23306152 102.46355017 207.09113451 103.61459177 207.94921875 104.765625 C213.98677396 112.95525981 219.36957302 121.45788276 224.375 130.3125 C224.7771875 131.01971191 225.179375 131.72692383 225.59375 132.45556641 C240.31504051 158.60310856 250.01421333 187.62416442 254.375 217.3125 C254.55232666 218.51712891 254.72965332 219.72175781 254.91235352 220.96289062 C256.51132494 232.6201731 256.73340972 244.18436066 256.6875 255.9375 C256.68476578 257.39183441 256.68476578 257.39183441 256.68197632 258.87554932 C256.63662737 273.20729259 256.21795422 287.22145512 253.375 301.3125 C253.19807617 302.21436035 253.02115234 303.1162207 252.83886719 304.04541016 C251.54002189 310.51832573 250.03323805 316.92270862 248.375 323.3125 C248.16004883 324.14313965 247.94509766 324.9737793 247.72363281 325.82958984 C236.99088092 366.29800039 215.34940378 403.22931601 186.375 433.3125 C185.74287598 433.97185547 185.11075195 434.63121094 184.45947266 435.31054688 C175.31502521 444.79880305 166.01765991 453.5387044 155.375 461.3125 C154.22394983 462.17056152 153.07290823 463.02863451 151.921875 463.88671875 C143.73069386 469.92486829 135.21695895 475.28345521 126.375 480.3125 C125.74319824 480.67698242 125.11139648 481.04146484 124.46044922 481.41699219 C98.43104716 496.31535669 69.01389511 505.95897542 39.375 510.3125 C38.17037109 510.48982666 36.96574219 510.66715332 35.72460938 510.84985352 C24.0673269 512.44882494 12.50313934 512.67090972 0.75 512.625 C-0.21955627 512.62317719 -1.18911255 512.62135437 -2.18804932 512.61947632 C-16.51979259 512.57412737 -30.53395512 512.15545422 -44.625 509.3125 C-45.52686035 509.13557617 -46.4287207 508.95865234 -47.35791016 508.77636719 C-53.83082573 507.47752189 -60.23520862 505.97073805 -66.625 504.3125 C-67.45563965 504.09754883 -68.2862793 503.88259766 -69.14208984 503.66113281 C-109.61050039 492.92838092 -146.54181601 471.28690378 -176.625 442.3125 C-177.28435547 441.68037598 -177.94371094 441.04825195 -178.62304688 440.39697266 C-188.11130305 431.25252521 -196.8512044 421.95515991 -204.625 411.3125 C-205.48306152 410.16144983 -206.34113451 409.01040823 -207.19921875 407.859375 C-213.23736829 399.66819386 -218.59595521 391.15445895 -223.625 382.3125 C-223.98948242 381.68069824 -224.35396484 381.04889648 -224.72949219 380.39794922 C-239.62785669 354.36854716 -249.27147542 324.95139511 -253.625 295.3125 C-253.80232666 294.10787109 -253.97965332 292.90324219 -254.16235352 291.66210938 C-255.761325 280.00482646 -255.9834053 268.44063902 -255.9375 256.6875 C-255.93567719 255.71761139 -255.93385437 254.74772278 -255.93197632 253.7484436 C-255.88658309 239.39693945 -255.3812347 225.43307082 -252.625 211.3125 C-252.38354248 209.96696045 -252.38354248 209.96696045 -252.13720703 208.59423828 C-243.32721851 159.90656876 -219.88393453 114.88244092 -185.625 79.3125 C-184.99287598 78.65314453 -184.36075195 77.99378906 -183.70947266 77.31445312 C-174.56502521 67.82619695 -165.26765991 59.0862956 -154.625 51.3125 C-153.47394983 50.45443848 -152.32290823 49.59636549 -151.171875 48.73828125 C-142.98069386 42.70013171 -134.46695895 37.34154479 -125.625 32.3125 C-124.99319824 31.94801758 -124.36139648 31.58353516 -123.71044922 31.20800781 C-97.68104716 16.30964331 -68.26389511 6.66602458 -38.625 2.3125 C-37.42037109 2.13517334 -36.21574219 1.95784668 -34.97460938 1.77514648 C-23.31732646 0.176175 -11.75313902 -0.0459053 0 0 Z M-110.625 99.3125 C-111.64207031 100.04597656 -112.65914063 100.77945313 -113.70703125 101.53515625 C-155.51790002 132.31905263 -181.87581454 177.99236226 -190.44921875 228.90625 C-196.0316055 267.47097647 -189.16497514 307.6301013 -171.625 342.3125 C-171.25149414 343.0540332 -170.87798828 343.79556641 -170.49316406 344.55957031 C-151.90071543 380.89302323 -121.72401729 409.63234033 -85.625 428.3125 C-84.72563721 428.78163818 -84.72563721 428.78163818 -83.80810547 429.26025391 C-67.45847837 437.66594374 -49.66999594 443.02262315 -31.625 446.3125 C-30.43003906 446.53808594 -29.23507813 446.76367188 -28.00390625 446.99609375 C-1.54336215 451.12610332 26.74265133 448.95847953 52.375 441.3125 C53.16165039 441.08079102 53.94830078 440.84908203 54.75878906 440.61035156 C103.1700174 426.09258837 144.26234066 393.56682139 168.77734375 349.22265625 C180.89722359 326.63335887 187.83888443 303.65154742 191.375 278.3125 C191.5507959 277.19053223 191.7265918 276.06856445 191.90771484 274.91259766 C192.69649316 268.83562529 192.61963711 262.74469663 192.625 256.625 C192.62567474 255.93376038 192.62634949 255.24252075 192.62704468 254.53033447 C192.60904021 242.88598844 191.76768452 231.72249654 189.375 220.3125 C189.20871094 219.47638184 189.04242188 218.64026367 188.87109375 217.77880859 C178.92457215 168.53431693 148.9501456 124.44249328 107.375 96.3125 C101.19904979 92.36413242 94.83418671 88.77375195 88.375 85.3125 C87.75898926 84.97911621 87.14297852 84.64573242 86.50830078 84.30224609 C25.17573617 51.71551936 -54.86520376 58.50682886 -110.625 99.3125 Z " fill="#E28A99" transform="translate(255.625,-0.3125)"/>
<path d="M0 0 C0.96988861 0.00182281 1.93977722 0.00364563 2.9390564 0.00552368 C17.29056055 0.05091691 31.25442918 0.5562653 45.375 3.3125 C46.72053955 3.55395752 46.72053955 3.55395752 48.09326172 3.80029297 C96.78093124 12.61028149 141.80505908 36.05356547 177.375 70.3125 C178.3640332 71.26068604 178.3640332 71.26068604 179.37304688 72.22802734 C188.86130305 81.37247479 197.6012044 90.66984009 205.375 101.3125 C206.23306152 102.46355017 207.09113451 103.61459177 207.94921875 104.765625 C213.98677396 112.95525981 219.36957302 121.45788276 224.375 130.3125 C224.7771875 131.01971191 225.179375 131.72692383 225.59375 132.45556641 C240.31504051 158.60310856 250.01421333 187.62416442 254.375 217.3125 C254.55232666 218.51712891 254.72965332 219.72175781 254.91235352 220.96289062 C256.51132494 232.6201731 256.73340972 244.18436066 256.6875 255.9375 C256.68476578 257.39183441 256.68476578 257.39183441 256.68197632 258.87554932 C256.63662737 273.20729259 256.21795422 287.22145512 253.375 301.3125 C253.19807617 302.21436035 253.02115234 303.1162207 252.83886719 304.04541016 C251.54002189 310.51832573 250.03323805 316.92270862 248.375 323.3125 C248.16004883 324.14313965 247.94509766 324.9737793 247.72363281 325.82958984 C236.99088092 366.29800039 215.34940378 403.22931601 186.375 433.3125 C185.74287598 433.97185547 185.11075195 434.63121094 184.45947266 435.31054688 C175.31502521 444.79880305 166.01765991 453.5387044 155.375 461.3125 C154.22394983 462.17056152 153.07290823 463.02863451 151.921875 463.88671875 C143.73069386 469.92486829 135.21695895 475.28345521 126.375 480.3125 C125.74319824 480.67698242 125.11139648 481.04146484 124.46044922 481.41699219 C98.43104716 496.31535669 69.01389511 505.95897542 39.375 510.3125 C38.17037109 510.48982666 36.96574219 510.66715332 35.72460938 510.84985352 C24.0673269 512.44882494 12.50313934 512.67090972 0.75 512.625 C-0.21955627 512.62317719 -1.18911255 512.62135437 -2.18804932 512.61947632 C-16.51979259 512.57412737 -30.53395512 512.15545422 -44.625 509.3125 C-45.52686035 509.13557617 -46.4287207 508.95865234 -47.35791016 508.77636719 C-53.83082573 507.47752189 -60.23520862 505.97073805 -66.625 504.3125 C-67.45563965 504.09754883 -68.2862793 503.88259766 -69.14208984 503.66113281 C-109.61050039 492.92838092 -146.54181601 471.28690378 -176.625 442.3125 C-177.28435547 441.68037598 -177.94371094 441.04825195 -178.62304688 440.39697266 C-188.11130305 431.25252521 -196.8512044 421.95515991 -204.625 411.3125 C-205.48306152 410.16144983 -206.34113451 409.01040823 -207.19921875 407.859375 C-213.23736829 399.66819386 -218.59595521 391.15445895 -223.625 382.3125 C-223.98948242 381.68069824 -224.35396484 381.04889648 -224.72949219 380.39794922 C-239.62785669 354.36854716 -249.27147542 324.95139511 -253.625 295.3125 C-253.80232666 294.10787109 -253.97965332 292.90324219 -254.16235352 291.66210938 C-255.761325 280.00482646 -255.9834053 268.44063902 -255.9375 256.6875 C-255.93567719 255.71761139 -255.93385437 254.74772278 -255.93197632 253.7484436 C-255.88658309 239.39693945 -255.3812347 225.43307082 -252.625 211.3125 C-252.38354248 209.96696045 -252.38354248 209.96696045 -252.13720703 208.59423828 C-243.32721851 159.90656876 -219.88393453 114.88244092 -185.625 79.3125 C-184.99287598 78.65314453 -184.36075195 77.99378906 -183.70947266 77.31445312 C-174.56502521 67.82619695 -165.26765991 59.0862956 -154.625 51.3125 C-153.47394983 50.45443848 -152.32290823 49.59636549 -151.171875 48.73828125 C-142.98069386 42.70013171 -134.46695895 37.34154479 -125.625 32.3125 C-124.99319824 31.94801758 -124.36139648 31.58353516 -123.71044922 31.20800781 C-97.68104716 16.30964331 -68.26389511 6.66602458 -38.625 2.3125 C-37.42037109 2.13517334 -36.21574219 1.95784668 -34.97460938 1.77514648 C-23.31732646 0.176175 -11.75313902 -0.0459053 0 0 Z M-45.625 20.3125 C-47.18589355 20.62598389 -47.18589355 20.62598389 -48.77832031 20.94580078 C-69.69234935 25.25049223 -89.86194429 32.07412977 -108.66796875 42.25585938 C-110.75771209 43.38415393 -112.86273076 44.48054354 -114.96875 45.578125 C-139.52665098 58.58202707 -164.13215847 77.54193303 -181.625 99.3125 C-182.53347227 100.40917064 -183.44236912 101.50548962 -184.3515625 102.6015625 C-195.33177125 115.95587044 -204.46562772 130.08592532 -212.625 145.3125 C-212.96241211 145.93141113 -213.29982422 146.55032227 -213.64746094 147.18798828 C-224.39473102 167.0206335 -231.19496166 188.25452958 -235.625 210.3125 C-235.94041748 211.84632324 -235.94041748 211.84632324 -236.26220703 213.41113281 C-244.57397499 255.14765884 -240.29683597 300.84207537 -224.625 340.3125 C-224.17302246 341.47604004 -224.17302246 341.47604004 -223.71191406 342.66308594 C-216.91122715 360.05701214 -208.64459638 377.17980078 -197.625 392.3125 C-196.90699219 393.3025 -196.18898437 394.2925 -195.44921875 395.3125 C-184.56020582 410.05686293 -172.81394593 424.60140308 -158.625 436.3125 C-157.696875 437.12847656 -156.76875 437.94445312 -155.8125 438.78515625 C-130.6705261 460.81393903 -99.00291398 478.65214611 -66.625 487.3125 C-65.77502441 487.54324219 -64.92504883 487.77398437 -64.04931641 488.01171875 C-31.68726204 496.67826041 3.62019822 500.19455078 36.79199219 493.80419922 C39.6181101 493.26622176 42.45176389 492.79172454 45.2890625 492.31640625 C88.45878985 484.76144965 128.82532122 464.13843562 161.00390625 434.49609375 C162.63977786 432.98958266 164.29479585 431.50369007 165.96484375 430.03515625 C171.21316666 425.41821053 175.896185 420.66860866 180.375 415.3125 C181.19613281 414.37921875 182.01726562 413.4459375 182.86328125 412.484375 C225.2604046 364.06536609 244.19652468 300.19086833 240.13623047 236.57128906 C236.26614258 190.44902259 218.83545311 144.2434686 189.375 108.3125 C188.67246094 107.41917969 187.96992188 106.52585937 187.24609375 105.60546875 C178.60288892 94.73381332 169.15069707 84.11195919 158.375 75.3125 C157.52164062 74.57128906 156.66828125 73.83007812 155.7890625 73.06640625 C147.74791508 66.15705572 139.24675065 60.10871042 130.375 54.3125 C129.49666504 53.73483887 129.49666504 53.73483887 128.60058594 53.14550781 C77.96723213 20.23237536 13.47919473 8.15823367 -45.625 20.3125 Z " fill="#010000" transform="translate(255.625,-0.3125)"/>
<path d="M0 0 C0.93859863 0.34691895 1.87719727 0.69383789 2.84423828 1.05126953 C31.42176611 11.75167366 55.70189897 26.02990222 78 47 C78.55848633 47.5244873 79.11697266 48.04897461 79.69238281 48.58935547 C94.21953669 62.34678118 105.98459429 77.69798719 116 95 C116.38639648 95.66435059 116.77279297 96.32870117 117.17089844 97.01318359 C130.37440516 120.01694614 138.32230383 145.71733369 141.73388672 171.96606445 C141.9840268 173.87791492 142.27010586 175.78496532 142.55859375 177.69140625 C144.7276523 195.46242667 143.30560144 213.98714974 140.39257812 231.57958984 C140.04879591 233.69915258 139.76183048 235.82777061 139.484375 237.95703125 C133.65260898 277.07151908 111.96503727 313.82913799 85 342 C84.47954102 342.55300781 83.95908203 343.10601562 83.42285156 343.67578125 C70.02402977 357.86748012 54.83373363 369.18355682 38 379 C37.11658936 379.52303711 37.11658936 379.52303711 36.21533203 380.05664062 C24.74995945 386.77716722 12.471339 391.4899603 0 396 C-1.07725342 396.39662842 -1.07725342 396.39662842 -2.17626953 396.80126953 C-39.73121294 410.31503886 -86.29014122 410.19190923 -124 398 C-124.73138184 397.76974121 -125.46276367 397.53948242 -126.21630859 397.30224609 C-150.73071224 389.51154557 -172.80242322 377.88990151 -193 362 C-194.24523437 361.06220703 -194.24523437 361.06220703 -195.515625 360.10546875 C-216.29732693 343.94546434 -232.79587791 323.62814923 -246 301 C-246.34337402 300.42169434 -246.68674805 299.84338867 -247.04052734 299.24755859 C-261.21735304 275.14074003 -268.65343676 248.57510164 -272 221 C-272.09498779 220.23518311 -272.18997559 219.47036621 -272.2878418 218.68237305 C-275.55669542 189.74019657 -272.21541828 160.56434002 -263 133 C-262.64832764 131.94063232 -262.64832764 131.94063232 -262.28955078 130.85986328 C-252.46594646 101.84660705 -236.27550651 75.96786198 -215 54 C-214.49887695 53.4730957 -213.99775391 52.94619141 -213.48144531 52.40332031 C-189.44344953 27.16716897 -157.6280858 7.47211765 -124 -2 C-123.31212402 -2.1954541 -122.62424805 -2.3909082 -121.91552734 -2.59228516 C-82.98794032 -13.47818616 -38.32337331 -14.30198844 0 0 Z M-176 41 C-177.01707031 41.73347656 -178.03414063 42.46695313 -179.08203125 43.22265625 C-220.89290002 74.00655263 -247.25081454 119.67986226 -255.82421875 170.59375 C-261.4066055 209.15847647 -254.53997514 249.3176013 -237 284 C-236.62649414 284.7415332 -236.25298828 285.48306641 -235.86816406 286.24707031 C-217.27571543 322.58052323 -187.09901729 351.31984033 -151 370 C-150.10063721 370.46913818 -150.10063721 370.46913818 -149.18310547 370.94775391 C-132.83347837 379.35344374 -115.04499594 384.71012315 -97 388 C-95.80503906 388.22558594 -94.61007813 388.45117188 -93.37890625 388.68359375 C-66.91836215 392.81360332 -38.63234867 390.64597953 -13 383 C-12.21334961 382.76829102 -11.42669922 382.53658203 -10.61621094 382.29785156 C37.7950174 367.78008837 78.88734066 335.25432139 103.40234375 290.91015625 C115.52222359 268.32085887 122.46388443 245.33904742 126 220 C126.1757959 218.87803223 126.3515918 217.75606445 126.53271484 216.60009766 C127.32149316 210.52312529 127.24463711 204.43219663 127.25 198.3125 C127.25067474 197.62126038 127.25134949 196.93002075 127.25204468 196.21783447 C127.23404021 184.57348844 126.39268452 173.40999654 124 162 C123.83371094 161.16388184 123.66742188 160.32776367 123.49609375 159.46630859 C113.54957215 110.22181693 83.5751456 66.12999328 42 38 C35.82404979 34.05163242 29.45918671 30.46125195 23 27 C22.38398926 26.66661621 21.76797852 26.33323242 21.13330078 25.98974609 C-40.19926383 -6.59698064 -120.24020376 0.19432886 -176 41 Z " fill="#030202" transform="translate(321,58)"/>
<path d="M0 0 C48.40898277 5.43661216 94.79607393 27.15153685 130.2890625 60.4765625 C132.54255176 62.57419083 134.83340164 64.5805911 137.1875 66.5625 C156.00944862 82.99313548 170.31535104 105.14012535 182 127 C182.34272949 127.63486328 182.68545898 128.26972656 183.03857422 128.92382812 C195.48292367 152.15645754 202.8238855 177.06597805 207 203 C207.12004395 203.7420166 207.24008789 204.4840332 207.36376953 205.24853516 C210.73342399 227.31952077 210.68576192 251.98145948 207 274 C206.8546582 274.88284668 206.70931641 275.76569336 206.55957031 276.67529297 C197.43172159 329.88463865 169.45729432 384.64358637 127 419 C125.82873607 419.98224952 124.65824473 420.96542062 123.48828125 421.94921875 C109.92712725 433.26410815 95.63071642 442.7841221 80 451 C79.25105469 451.39687012 78.50210938 451.79374023 77.73046875 452.20263672 C59.03088336 461.97495321 23.18043707 479.83323742 1.69970703 475.5402832 C0.85835205 475.27284302 0.85835205 475.27284302 0 475 C0.91942383 474.69147095 0.91942383 474.69147095 1.85742188 474.37670898 C32.56545329 464.02107423 59.67930838 450.38768388 85 430 C85.52271484 429.58169922 86.04542969 429.16339844 86.58398438 428.73242188 C99.70623922 418.16037154 111.68694198 406.33950683 122 393 C123.14275391 391.60007812 123.14275391 391.60007812 124.30859375 390.171875 C145.11425029 364.20641564 158.69474562 333.42119795 169 302 C168.34 302 167.68 302 167 302 C167.92866495 296.96335831 168.96017269 292.03128174 170.4375 287.125 C172.83019307 278.61089929 173.88320896 269.75844886 175 261 C175.14900757 259.83537231 175.14900757 259.83537231 175.30102539 258.6472168 C177.74997211 237.2282342 176.9316612 214.72830272 171.32128906 193.87988281 C170.44894189 190.54055763 170.00709845 187.72855517 170.09765625 184.265625 C170.23199006 178.51096052 168.28824939 173.24235553 166.5625 167.8125 C166.20414063 166.66990723 165.84578125 165.52731445 165.4765625 164.35009766 C162.01117402 153.57471798 157.79050064 143.24718702 153 133 C152.5054834 131.93048096 152.5054834 131.93048096 152.00097656 130.83935547 C144.71534393 115.22147395 135.7488909 100.4747787 125 87 C124.28328125 86.09121094 123.5665625 85.18242188 122.828125 84.24609375 C117.18782094 77.21571475 111.19170961 70.54304305 105 64 C103.68708984 62.60587891 103.68708984 62.60587891 102.34765625 61.18359375 C95.95759803 54.58710193 89.14646726 48.88122879 81.82373047 43.375 C80.01848836 42.01393929 78.22976214 40.6331393 76.44140625 39.25 C66.81812815 31.90114892 56.62603447 25.78571367 46 20 C45.31824707 19.62746094 44.63649414 19.25492188 43.93408203 18.87109375 C29.96393278 11.33131691 15.0674166 5.91313947 0 1 C0 0.67 0 0.34 0 0 Z " fill="#CA5A6E" transform="translate(287,18)"/>
<path d="M0 0 C-2.38419867 1.58946578 -4.24234277 2.59078586 -6.8515625 3.62890625 C-7.61202881 3.93699219 -8.37249512 4.24507813 -9.15600586 4.5625 C-9.97077393 4.8925 -10.78554199 5.2225 -11.625 5.5625 C-35.89921358 15.61243699 -57.07562789 29.82908663 -76 48 C-76.50370117 48.48178711 -77.00740234 48.96357422 -77.52636719 49.45996094 C-82.59163057 54.33102892 -87.23814809 59.03502649 -91 65 C-90.44699219 65.226875 -89.89398438 65.45375 -89.32421875 65.6875 C-86.32049907 67.38371817 -84.22936668 69.5438637 -81.8125 72 C-80.49185547 73.3303125 -80.49185547 73.3303125 -79.14453125 74.6875 C-76.45906061 77.58330804 -76.05497383 78.40628266 -75.6875 82.375 C-76 86 -76 86 -77.5625 88.4375 C-81.09449535 90.70159958 -82.86141434 90.7587407 -87 90 C-89.1696444 88.49761568 -91.01735449 86.85630928 -92.91015625 85.01953125 C-95.49285905 82.52372312 -98.22459405 80.27937595 -101 78 C-107.01047917 86.48448953 -111.8164343 95.31884736 -116.3125 104.6875 C-117.06708496 106.25359009 -117.06708496 106.25359009 -117.83691406 107.85131836 C-128.06596421 129.49848602 -132.67839349 151.67151946 -134.70629883 175.43237305 C-134.96651437 177.70725821 -135.38105984 179.799504 -136 182 C-135.33613281 181.96519531 -134.67226562 181.93039063 -133.98828125 181.89453125 C-129.99870449 181.77222306 -126.73463461 181.74512677 -122.9375 183.0625 C-121 185 -121 185 -120 188.375 C-120 192.35865373 -120.49150608 193.95397167 -123 197 C-126.01490557 198.00496852 -128.04181692 198.10335303 -131.1875 198.0625 C-132.08855469 198.05347656 -132.98960937 198.04445313 -133.91796875 198.03515625 C-134.94857422 198.01775391 -134.94857422 198.01775391 -136 198 C-134.42841175 212.2203388 -132.48608935 226.11884461 -129 240 C-128.6770691 241.33984032 -128.3541522 242.67968401 -128.03125 244.01953125 C-126.01304625 252.05165667 -123.46572036 259.4855409 -120 267 C-119.42088867 268.27037109 -119.42088867 268.27037109 -118.83007812 269.56640625 C-113.63636086 280.91078126 -108.52098442 291.97920414 -101 302 C-100.36384766 301.45472656 -100.36384766 301.45472656 -99.71484375 300.8984375 C-98.4791125 299.83923929 -97.23921015 298.7848959 -95.99609375 297.734375 C-94.7064081 296.61378708 -93.44544579 295.45885259 -92.22265625 294.265625 C-89.15534748 291.34437856 -87.60052784 290.10178438 -83.3125 289.375 C-80 290 -80 290 -77.5625 291.5625 C-75.29840042 295.09449535 -75.2412593 296.86141434 -76 301 C-78.03595509 303.96351056 -80.49083233 306.43574082 -83 309 C-84.15625757 310.32430368 -85.30299915 311.65701093 -86.4375 313 C-87.283125 313.99 -88.12875 314.98 -89 316 C-82.4751177 330.16831585 -66.37101093 341.98031071 -54 351 C-53.42443359 351.41991211 -52.84886719 351.83982422 -52.25585938 352.27246094 C-38.00049628 362.52000309 -22.28107985 370.76189414 -5.8359375 376.87890625 C-3 378 -3 378 0 380 C-6.90196636 380.32984308 -12.99612527 379.13875672 -19.6875 377.5 C-21.33637207 377.09624146 -21.33637207 377.09624146 -23.01855469 376.68432617 C-71.23751787 364.42780328 -114.80813967 332.69714714 -140.40112305 289.8671875 C-142.67589134 285.95117054 -144.86104047 281.99160164 -147 278 C-147.33338379 277.38398926 -147.66676758 276.76797852 -148.01025391 276.13330078 C-158.15445867 257.04055486 -163.91084547 235.66997838 -166.68823242 214.33862305 C-166.94007618 212.44949902 -167.25183613 210.56842145 -167.58203125 208.69140625 C-172.75054244 163.04427474 -159.51411643 116.19803346 -133 79 C-132.58395508 78.41573242 -132.16791016 77.83146484 -131.73925781 77.22949219 C-113.43090309 51.86494366 -89.78351956 32.22852971 -62 18 C-61.37061523 17.67306152 -60.74123047 17.34612305 -60.09277344 17.00927734 C-46.25448166 9.89700447 -31.3337019 5.02052969 -16.1875 1.5625 C-15.47746826 1.39854736 -14.76743652 1.23459473 -14.03588867 1.06567383 C-9.27895293 0.05484617 -4.86159037 -0.13610275 0 0 Z " fill="#D0D0F9" transform="translate(232,66)"/>
<path d="M0 0 C4.10777323 0.85578609 5.41650468 2.34159012 8 5.625 C8.469308 8.61300502 8.63653116 11.01771536 8.56762695 13.99536133 C8.56835709 14.82514496 8.56908722 15.65492859 8.56983948 16.50985718 C8.56636581 19.24292173 8.5275166 21.97426578 8.48828125 24.70703125 C8.4789523 26.60559661 8.47183658 28.50417403 8.46684265 30.40275574 C8.44777927 35.39254157 8.39868403 40.38159622 8.34332275 45.37109375 C8.29211611 50.46539418 8.26932558 55.5598131 8.24414062 60.65429688 C8.19056476 70.64485197 8.10525981 80.63486511 8 90.625 C8.94327148 90.9139917 9.88654297 91.2029834 10.85839844 91.50073242 C14.41032025 92.77183904 15.82337788 94.09529496 18.25 96.9375 C18.91515625 97.69675781 19.5803125 98.45601563 20.265625 99.23828125 C24.44999343 104.99649997 24.89093759 110.7016725 24 117.625 C21.52551757 125.33566401 17.20474848 130.77323156 10.125 134.65234375 C4.36089569 137.17413938 -2.33875476 137.75113727 -8.38667297 135.89089966 C-11.05330846 135.34108339 -11.05330846 135.34108339 -13.10636902 137.01657104 C-13.79982925 137.72637115 -14.49328949 138.43617126 -15.20776367 139.16748047 C-16.00176071 139.96515839 -16.79575775 140.7628363 -17.61381531 141.58468628 C-18.45668594 142.46166168 -19.29955658 143.33863708 -20.16796875 144.2421875 C-21.04399246 145.12907257 -21.92001617 146.01595764 -22.82258606 146.92971802 C-25.14915496 149.28972644 -27.46215244 151.66155398 -29.76922607 154.04052734 C-33.02570213 157.39159914 -36.30715293 160.71827079 -39.58454895 164.04885864 C-41.32847598 165.824033 -43.06808195 167.60346422 -44.80302429 169.38742065 C-45.58756485 170.19140289 -46.37210541 170.99538513 -47.18041992 171.82373047 C-47.87149338 172.53512177 -48.56256683 173.24651306 -49.27458191 173.97946167 C-51.59117372 176.18880481 -52.64950345 176.59452204 -55.875 176.875 C-59 176.625 -59 176.625 -61.3125 175.625 C-63.37523286 173.18027957 -64.10657101 170.97326032 -64.35559082 167.78620911 C-63.89915064 165.01205795 -62.89950331 163.91194279 -60.99804688 161.8581543 C-60.35754395 161.16346039 -59.71704102 160.46876648 -59.05712891 159.75302124 C-55.71509229 156.29581207 -52.3015554 152.92315066 -48.84375 149.58203125 C-47.31176724 148.08212828 -45.78053822 146.58145512 -44.25 145.08007812 C-41.86251836 142.74225333 -39.47091298 140.40943138 -37.06640625 138.08911133 C-34.72843158 135.82952702 -32.40979522 133.55155872 -30.09375 131.26953125 C-29.3668396 130.57672562 -28.6399292 129.88391998 -27.89099121 129.17012024 C-27.23280396 128.51561386 -26.5746167 127.86110748 -25.89648438 127.18676758 C-25.31137085 126.61799393 -24.72625732 126.04922028 -24.12341309 125.46321106 C-22.73459701 123.61692971 -22.73459701 123.61692971 -23.30407715 121.07939148 C-23.53373169 120.26944229 -23.76338623 119.4594931 -24 118.625 C-24.62414412 111.2068936 -24.7269701 104.67752256 -20 98.625 C-17.19741019 95.6908807 -14.3407308 92.93828689 -11 90.625 C-10.01 90.625 -9.02 90.625 -8 90.625 C-8.01665459 89.04432487 -8.01665459 89.04432487 -8.03364563 87.43171692 C-8.13501158 77.49997276 -8.20996058 67.56833357 -8.25906086 57.63618946 C-8.28515264 52.52994538 -8.32054329 47.42411894 -8.37719727 42.31811523 C-8.43153163 37.39032068 -8.46142369 32.46292779 -8.47438622 27.5348568 C-8.48362352 25.65494145 -8.50166208 23.77504804 -8.52865028 21.89530373 C-8.56496015 19.26150676 -8.56994464 16.62936839 -8.56762695 13.99536133 C-8.58560333 13.21852493 -8.60357971 12.44168854 -8.62210083 11.64131165 C-8.58396833 7.63530412 -8.15987165 5.8281837 -5.65202332 2.64091492 C-3 0.625 -3 0.625 0 0 Z " fill="#020202" transform="translate(256,143.375)"/>
<path d="M0 0 C0.66257812 0.09152344 1.32515625 0.18304688 2.0078125 0.27734375 C4.57416763 1.35650145 5.40724874 2.71582835 6.875 5.0625 C7.26318359 7.36499023 7.26318359 7.36499023 7.2734375 9.87109375 C7.27923828 11.23911133 7.27923828 11.23911133 7.28515625 12.63476562 C7.27355469 13.58029297 7.26195312 14.52582031 7.25 15.5 C7.26160156 16.44166016 7.27320313 17.38332031 7.28515625 18.35351562 C7.26400482 23.34877829 7.23769954 27.06826908 3.875 31.0625 C1.06584526 32.46707737 -1.01310534 32.31145157 -4.125 32.0625 C-7.2609157 30.28265595 -7.96602736 29.53941793 -9.125 26.0625 C-9.4292547 22.60940178 -9.4484943 19.15242872 -9.5 15.6875 C-9.53738281 14.74132812 -9.57476562 13.79515625 -9.61328125 12.8203125 C-9.67256378 8.13040594 -9.65669634 5.80412472 -6.859375 1.90234375 C-4.1031868 0.04782283 -3.1974769 -0.55799107 0 0 Z " fill="#040404" transform="translate(257.125,399.9375)"/>
<path d="M0 0 C3.00466274 2.00508006 5.45251791 4.45251791 8 7 C8.66902344 7.58652344 9.33804687 8.17304688 10.02734375 8.77734375 C13.22435508 11.66053802 14.82327628 13.46052759 16.1875 17.625 C16 21 16 21 14.5 23.875 C11.11760626 26.75003468 9.45235908 27.29682394 5 27 C1.94061879 25.04874112 -0.47737494 22.59173808 -3 20 C-3.66902344 19.35417969 -4.33804687 18.70835937 -5.02734375 18.04296875 C-10.89325408 12.34499859 -10.89325408 12.34499859 -11.3125 7.0625 C-11.24444909 3.31289483 -11.24444909 3.31289483 -9.4375 1 C-5.86723338 -0.46472477 -3.84828409 -0.64138068 0 0 Z " fill="#060607" transform="translate(367,356)"/>
<path d="M0 0 C0.93714844 -0.00257813 1.87429688 -0.00515625 2.83984375 -0.0078125 C7.80437377 0.06260637 11.52949427 0.18039685 15.5 3.5 C16.90457737 6.30915474 16.74895157 8.38810534 16.5 11.5 C14.72015595 14.6359157 13.97691793 15.34102736 10.5 16.5 C7.02517506 16.75394579 3.54564065 16.73126084 0.0625 16.75 C-1.36932617 16.7809375 -1.36932617 16.7809375 -2.83007812 16.8125 C-3.75111328 16.81765625 -4.67214844 16.8228125 -5.62109375 16.828125 C-6.4608374 16.8374707 -7.30058105 16.84681641 -8.16577148 16.85644531 C-11.0252817 16.41978755 -12.38411115 15.43640556 -14.5 13.5 C-15.28515625 11.6328125 -15.28515625 11.6328125 -15.5625 9.625 C-15.67722656 8.96757812 -15.79195313 8.31015625 -15.91015625 7.6328125 C-14.31531979 -0.66033708 -6.69368514 -0.20255994 0 0 Z " fill="#040404" transform="translate(415.5,247.5)"/>
<path d="M0 0 C0.93714844 -0.00257813 1.87429687 -0.00515625 2.83984375 -0.0078125 C11.66104117 0.11731087 11.66104117 0.11731087 15.5 3.5 C16.67180914 7.45485583 16.9048133 9.56892942 15.25 13.375 C13.5 15.5 13.5 15.5 10.5 16.5 C7.04690178 16.8042547 3.58992872 16.8234943 0.125 16.875 C-0.82117188 16.91238281 -1.76734375 16.94976562 -2.7421875 16.98828125 C-7.46883931 17.04802825 -9.74297641 17.06587514 -13.625 14.1640625 C-15.5 11.5 -15.5 11.5 -16.125 8.5 C-14.28929376 -0.31138993 -7.47902301 -0.22632532 0 0 Z " fill="#040404" transform="translate(95.5,247.5)"/>
<path d="M0 0 C4.18421805 0.87171209 5.42961969 2.20639419 8 5.625 C8.68745025 9.14220473 8.60807733 12.55353546 8.5 16.125 C8.50386719 17.53072266 8.50386719 17.53072266 8.5078125 18.96484375 C8.38155489 27.86600504 8.38155489 27.86600504 5 31.625 C2.37121839 32.74776504 -0.16096191 32.83105922 -3 32.625 C-6.26711826 30.94955474 -6.827811 30.14156699 -8 26.625 C-8.3042547 23.17190178 -8.3234943 19.71492872 -8.375 16.25 C-8.41238281 15.30382812 -8.44976562 14.35765625 -8.48828125 13.3828125 C-8.54802825 8.65616069 -8.56587514 6.38202359 -5.6640625 2.5 C-3 0.625 -3 0.625 0 0 Z " fill="#040404" transform="translate(256,79.375)"/>
<path d="M0 0 C2.4375 1.5625 2.4375 1.5625 4 4 C4.7583344 7.58485354 4.7655011 9.81371103 2.7421875 12.94921875 C0.9301803 15.0941296 -0.98709043 17.04249161 -3 19 C-3.73347656 19.76570313 -4.46695313 20.53140625 -5.22265625 21.3203125 C-10.89980412 26.90982001 -10.89980412 26.90982001 -15.8125 27.3125 C-19.62819145 25.74133293 -21.08736369 24.66588626 -23 21 C-22.99451518 16.4366274 -22.17867386 13.80014345 -19.12890625 10.5078125 C-17.95524982 9.36445248 -16.76589644 8.23701554 -15.5625 7.125 C-14.96373047 6.54492188 -14.36496094 5.96484375 -13.74804688 5.3671875 C-9.10938073 0.92071693 -6.75678352 -0.58248134 0 0 Z " fill="#060606" transform="translate(152,356)"/>
<path d="M0 0 C2.57654654 2.37835065 3.83246839 3.8738153 4.3515625 7.36328125 C3.63568402 12.73236986 -1.32111868 16.30934626 -5 20 C-5.63035156 20.65355469 -6.26070313 21.30710938 -6.91015625 21.98046875 C-9.91716675 24.86418497 -11.47830993 25.91157795 -15.6875 26.625 C-19 26 -19 26 -21.4375 24.4375 C-23.70159958 20.90550465 -23.7587407 19.13858566 -23 15 C-20.99156552 11.9991626 -18.55967598 9.53487292 -16 7 C-15.35546875 6.33097656 -14.7109375 5.66195312 -14.046875 4.97265625 C-9.18523838 -0.02175617 -7.26494338 -1.75360702 0 0 Z " fill="#060606" transform="translate(379,130)"/>
<path d="M0 0 C3.70257928 2.58769804 6.80514605 5.81533697 10 9 C10.65355469 9.63035156 11.30710938 10.26070312 11.98046875 10.91015625 C14.86418497 13.91716675 15.91157795 15.47830993 16.625 19.6875 C16 23 16 23 14.4375 25.4375 C10.90550465 27.70159958 9.13858566 27.7587407 5 27 C1.94792392 25.03052405 -0.47507782 22.59638224 -3 20 C-3.76570312 19.26652344 -4.53140625 18.53304687 -5.3203125 17.77734375 C-10.90982001 12.10019588 -10.90982001 12.10019588 -11.3125 7.1875 C-9.07652658 1.75727883 -5.92239753 -0.789653 0 0 Z " fill="#050506" transform="translate(140,129)"/>
<path d="M0 0 C1.8046875 0.640625 1.8046875 0.640625 3.8046875 2.328125 C5.10888306 5.34407723 5.21189969 7.38292747 4.8046875 10.640625 C3.8046875 12.953125 3.8046875 12.953125 1.8046875 14.640625 C-1.89512811 15.78748929 -4.99215762 16.10337688 -8.6328125 14.703125 C-11.01371087 11.56033915 -11.62081384 8.5537177 -11.1953125 4.640625 C-8.1181485 -0.22327939 -5.38557002 -1.09743691 0 0 Z " fill="#555560" transform="translate(259.1953125,248.359375)"/>
<path d="M0 0 C0.99 0 1.98 0 3 0 C-0.83783784 16.92137592 -0.83783784 16.92137592 -4 22 C-6.12890625 22.76953125 -6.12890625 22.76953125 -8 23 C-5.47191206 15.28267891 -2.74972528 7.64054098 0 0 Z " fill="#CF7A88" transform="translate(453,320)"/>
<path d="M0 0 C2.69314454 4.03971682 3.74944172 8.24812214 5.125 12.875 C5.54072266 14.22271484 5.54072266 14.22271484 5.96484375 15.59765625 C6.22652344 16.47035156 6.48820312 17.34304687 6.7578125 18.2421875 C6.9964502 19.0347998 7.23508789 19.82741211 7.48095703 20.64404297 C8.03586583 23.16279645 8.09062428 25.42889227 8 28 C4.66250838 24.66250838 3.78755134 20.10082996 2.3125 15.6875 C1.97927734 14.73681641 1.64605469 13.78613281 1.30273438 12.80664062 C0.99271484 11.88431641 0.68269531 10.96199219 0.36328125 10.01171875 C0.07751221 9.17084717 -0.20825684 8.32997559 -0.50268555 7.46362305 C-1.06805484 4.66286628 -0.73298901 2.73899982 0 0 Z " fill="#D67F8E" transform="translate(450,175)"/>
<path d="M0 0 C0.99 0 1.98 0 3 0 C2.01 3.96 1.02 7.92 0 12 C-2 9 -2 9 -1.7578125 6.73828125 C-1.44457031 5.53751953 -1.44457031 5.53751953 -1.125 4.3125 C-0.92132813 3.50425781 -0.71765625 2.69601562 -0.5078125 1.86328125 C-0.34023438 1.24839844 -0.17265625 0.63351562 0 0 Z " fill="#C77382" transform="translate(453,320)"/>
<path d="M0 0 C0.625 1.8125 0.625 1.8125 1 4 C-1 7 -1 7 -4 8 C-2.25 2.25 -2.25 2.25 0 0 Z " fill="#D4818F" transform="translate(449,335)"/>
<path d="M0 0 C2.64 0 5.28 0 8 0 C5.01353231 1.99097846 2.40312738 2.94124926 -1 4 C-0.67 2.68 -0.34 1.36 0 0 Z " fill="#C1C0E4" transform="translate(224,66)"/>
</svg>
