<?xml version="1.0" encoding="UTF-8"?>
<svg version="1.1" xmlns="http://www.w3.org/2000/svg" viewbox="0 0 512 512">
<path d="M0 0 C1.43458282 -0.00668677 1.43458282 -0.00668677 2.89814711 -0.01350862 C3.94083518 -0.01332426 4.98352324 -0.01313989 6.05780792 -0.01294994 C7.17180104 -0.01662663 8.28579415 -0.02030332 9.43354464 -0.02409142 C13.17422982 -0.03512289 16.91488723 -0.03897123 20.65558624 -0.04278088 C23.33470576 -0.04904598 26.01382231 -0.0556802 28.69293976 -0.0626936 C36.73844479 -0.08243327 44.78395103 -0.0925215 52.82947421 -0.10142139 C56.62230686 -0.10580878 60.41513811 -0.11117445 64.20796967 -0.11641026 C76.82347829 -0.13342079 89.43898606 -0.14791336 102.05450439 -0.155159 C105.32647961 -0.15706876 108.59845481 -0.15898911 111.87042999 -0.16094494 C113.09021635 -0.16167055 113.09021635 -0.16167055 114.33464485 -0.16241082 C127.49790261 -0.17070517 140.66106932 -0.19603279 153.82428735 -0.22852562 C167.35188869 -0.26164445 180.87944382 -0.27961215 194.4070859 -0.28280324 C201.99697041 -0.28496398 209.58672219 -0.29364845 217.17656708 -0.31926441 C223.64258396 -0.34103754 230.10843586 -0.34898955 236.57448524 -0.33929763 C239.86936116 -0.33477177 243.16382828 -0.33874826 246.45867157 -0.35605907 C271.67035562 -0.48106581 271.67035562 -0.48106581 282.14191437 4.13422108 C283.03412437 4.49149123 283.92633438 4.84876139 284.84558105 5.21685791 C297.37173207 10.42024127 307.15548178 21.8651539 312.41535187 34.09515858 C314.66169726 40.03761837 316.26226117 45.60502737 316.27613544 51.99230671 C316.28059329 52.94869525 316.28505113 53.9050838 316.28964406 54.89045382 C316.28936752 56.45448592 316.28936752 56.45448592 316.28908539 58.05011463 C316.29276208 59.16410775 316.29643876 60.27810086 316.30022687 61.42585135 C316.31125834 65.16653653 316.31510667 68.90719393 316.31891632 72.64789295 C316.32518142 75.32701246 316.33181564 78.00612902 316.33882904 80.68524647 C316.35856871 88.7307515 316.36865694 96.77625774 316.37755683 104.82178092 C316.38194422 108.61461357 316.3873099 112.40744482 316.3925457 116.20027637 C316.40955623 128.815785 316.4240488 141.43129277 316.43129444 154.0468111 C316.4332042 157.31878631 316.43512455 160.59076152 316.43708038 163.8627367 C316.43756412 164.67592761 316.43804786 165.48911851 316.43854626 166.32695156 C316.44684061 179.49020932 316.47216823 192.65337603 316.50466106 205.81659406 C316.5377799 219.34419539 316.55574759 232.87175053 316.55893868 246.3993926 C316.56109942 253.98927712 316.5697839 261.5790289 316.59539986 269.16887379 C316.61717298 275.63489067 316.625125 282.10074257 316.61543307 288.56679195 C316.61090722 291.86166787 316.6148837 295.15613499 316.63219452 298.45097828 C316.75720125 323.66266233 316.75720125 323.66266233 312.14191437 334.13422108 C311.78464421 335.02643108 311.42737406 335.91864109 311.05927753 336.83788776 C306.32466449 348.23556384 296.06664316 357.75450594 285.14191437 363.13422108 C278.06390447 365.96542504 270.98467714 368.25395547 263.31227016 368.26564884 C262.36223171 368.26948999 261.41219326 368.27333113 260.43336576 368.27728868 C258.87998332 368.27598895 258.87998332 368.27598895 257.29521942 368.27466297 C255.63542206 368.27911965 255.63542206 368.27911965 253.94209343 368.28366637 C250.22671036 368.292352 246.51135952 368.29386152 242.7959671 368.29535389 C240.13492938 368.29998221 237.47389459 368.30498641 234.81285858 368.31039906 C227.57704419 368.32396991 220.34123534 368.33000544 213.10541034 368.33440971 C208.58403389 368.33717483 204.06265957 368.34141273 199.54128456 368.34591389 C187.01412942 368.35810603 174.48697597 368.36840473 161.95981503 368.37178898 C161.15831912 368.37200854 160.3568232 368.37222811 159.53103954 368.37245433 C158.32596978 368.37278175 158.32596978 368.37278175 157.09655517 368.37311578 C155.46868988 368.37355924 153.84082458 368.3740058 152.21295929 368.37445545 C151.4054873 368.37467688 150.59801532 368.37489831 149.76607449 368.37512645 C136.69269032 368.37907142 123.61936201 368.39651647 110.5459994 368.41981497 C97.11219353 368.44356179 83.67841563 368.45599238 70.24458843 368.4571569 C62.70674127 368.45807191 55.16896683 368.46378 47.63113976 368.48197651 C41.21012702 368.49742267 34.78920949 368.50247154 28.3681817 368.49423841 C25.09577269 368.49034748 21.82359399 368.49283668 18.55120087 368.50529575 C14.99313594 368.51804447 11.4355569 368.51212202 7.87749481 368.50171375 C6.85752157 368.50977016 5.83754833 368.51782656 4.78666681 368.5261271 C-11.57317652 368.41478802 -25.59882703 362.52768501 -37.15886688 351.06000233 C-45.87221514 341.61528764 -51.96398417 329.31494089 -51.99230671 316.27613544 C-51.99676455 315.3197469 -52.0012224 314.36335835 -52.00581533 313.37798834 C-52.00553878 311.81395623 -52.00553878 311.81395623 -52.00525665 310.21832752 C-52.00893334 309.10433441 -52.01261003 307.99034129 -52.01639813 306.84259081 C-52.0274296 303.10190562 -52.03127794 299.36124822 -52.03508759 295.6205492 C-52.04135269 292.94142969 -52.04798691 290.26231313 -52.05500031 287.58319569 C-52.07473998 279.53769066 -52.0848282 271.49218442 -52.0937281 263.44666123 C-52.09811549 259.65382859 -52.10348116 255.86099733 -52.10871696 252.06816578 C-52.1257275 239.45265715 -52.14022007 226.83714938 -52.14746571 214.22163105 C-52.14937547 210.94965584 -52.15129582 207.67768064 -52.15325165 204.40570545 C-52.15373539 203.59251455 -52.15421913 202.77932364 -52.15471753 201.94149059 C-52.16301188 188.77823283 -52.18833949 175.61506612 -52.22083233 162.45184809 C-52.25395116 148.92424676 -52.27191886 135.39669162 -52.27510995 121.86904955 C-52.27727069 114.27916503 -52.28595516 106.68941325 -52.31157112 99.09956837 C-52.33334425 92.63355148 -52.34129626 86.16769959 -52.33160434 79.7016502 C-52.32707848 76.40677428 -52.33105496 73.11230716 -52.34836578 69.81746387 C-52.47337252 44.60577983 -52.47337252 44.60577983 -47.85808563 34.13422108 C-47.50065434 33.2419305 -47.14322306 32.34963993 -46.77496052 31.43031025 C-41.87862575 19.63866402 -31.12776691 9.74603892 -19.58464813 4.70453358 C-13.03521833 2.09947947 -7.09453305 0.01541055 0 0 Z M-7.88152313 42.74750233 C-8.55054657 43.58861561 -8.55054657 43.58861561 -9.23308563 44.44672108 C-9.69457001 44.99972889 -10.15605438 45.5527367 -10.63152313 46.12250233 C-14.25157768 52.05985294 -14.14449328 57.94617778 -14.11878204 64.67252064 C-14.12260759 65.73372627 -14.12643314 66.79493191 -14.13037461 67.88829529 C-14.14069312 71.44411652 -14.13671458 74.99977593 -14.13274384 78.5556078 C-14.13709094 81.10505797 -14.14227409 83.65450683 -14.14823151 86.20395374 C-14.16024099 92.41019681 -14.16277284 98.61638023 -14.16043124 104.82263266 C-14.15864726 109.86819271 -14.16039944 114.91373965 -14.16465569 119.95929813 C-14.16525087 120.67776933 -14.16584606 121.39624053 -14.16645929 122.13648359 C-14.16767106 123.59612854 -14.16888519 125.05577348 -14.17010166 126.51541843 C-14.18097527 140.20061674 -14.17881562 153.8857904 -14.17271682 167.5709901 C-14.16754835 180.08443044 -14.17880156 192.59779291 -14.19781504 205.11121784 C-14.21719784 217.96647486 -14.22544863 230.82169506 -14.22169179 243.67696679 C-14.21978034 250.89161467 -14.2222617 258.1061963 -14.23640633 265.32083225 C-14.24957362 272.1055273 -14.24705409 278.89004134 -14.23399544 285.67474461 C-14.23162696 288.16440349 -14.23437402 290.65407331 -14.24261856 293.14371967 C-14.25306436 296.54331262 -14.24500213 299.9423802 -14.23230743 303.34195423 C-14.23968172 304.32620534 -14.247056 305.31045645 -14.25465375 306.32453334 C-14.20295466 312.90954506 -13.49733476 318.82397641 -9.24480438 324.15765858 C-8.68406219 324.6036742 -8.12332001 325.04968983 -7.54558563 325.50922108 C-6.99257782 325.97070545 -6.43957001 326.43218983 -5.86980438 326.90765858 C0.06754624 330.52771313 5.95387107 330.42062873 12.68021393 330.39491749 C13.74141956 330.39874304 14.8026252 330.40256858 15.89598858 330.40651006 C19.45180981 330.41682857 23.00746922 330.41285002 26.56330109 330.40887928 C29.11275126 330.41322639 31.66220012 330.41840953 34.21164703 330.42436695 C40.4178901 330.43637644 46.62407352 330.43890829 52.83032595 330.43656669 C57.875886 330.43478271 62.92143294 330.43653489 67.96699142 330.44079113 C69.04469822 330.44168391 69.04469822 330.44168391 70.14417688 330.44259473 C71.60382183 330.4438065 73.06346677 330.44502064 74.52311172 330.44623711 C88.20831003 330.45711071 101.89348369 330.45495106 115.57868339 330.44885226 C128.09212373 330.44368379 140.6054862 330.45493701 153.11891113 330.47395048 C165.97416815 330.49333329 178.82938835 330.50158407 191.68466008 330.49782723 C198.89930796 330.49591579 206.11388959 330.49839715 213.32852554 330.51254177 C220.1132206 330.52570906 226.89773463 330.52318954 233.6824379 330.51013088 C236.17209679 330.5077624 238.6617666 330.51050946 241.15141296 330.51875401 C244.55100591 330.52919981 247.95007349 330.52113757 251.34964752 330.50844288 C252.33389863 330.51581716 253.31814974 330.52319145 254.33222663 330.5307892 C260.91723835 330.4790901 266.8316697 329.7734702 272.16535187 325.52093983 C272.61136749 324.96019764 273.05738312 324.39945545 273.51691437 323.82172108 C273.97839874 323.26871326 274.43988312 322.71570545 274.91535187 322.14593983 C278.53540642 316.20858921 278.42832202 310.32226437 278.40261078 303.59592152 C278.40643633 302.53471588 278.41026187 301.47351024 278.41420335 300.38014686 C278.42452186 296.82432564 278.42054331 293.26866623 278.41657257 289.71283436 C278.42091968 287.16338419 278.42610282 284.61393533 278.43206024 282.06448841 C278.44406973 275.85824534 278.44660158 269.65206193 278.44425998 263.4458095 C278.442476 258.40024944 278.44422818 253.35470251 278.44848442 248.30914402 C278.4493772 247.23143722 278.4493772 247.23143722 278.45028802 246.13195857 C278.45149979 244.67231362 278.45271393 243.21266867 278.4539304 241.75302373 C278.464804 228.06782542 278.46264435 214.38265175 278.45654555 200.69745205 C278.45137708 188.18401172 278.4626303 175.67064925 278.48164377 163.15722431 C278.50102658 150.30196729 278.50927737 137.4467471 278.50552052 124.59147537 C278.50360908 117.37682748 278.50609044 110.16224586 278.52023506 102.9476099 C278.53340235 96.16291485 278.53088283 89.37840082 278.51782417 82.59369755 C278.51545569 80.10403866 278.51820275 77.61436884 278.5264473 75.12472248 C278.5368931 71.72512953 278.52883086 68.32606196 278.51613617 64.92648792 C278.52351045 63.94223682 278.53088474 62.95798571 278.53848249 61.94390881 C278.48678339 55.35889709 277.78116349 49.44446574 273.52863312 44.11078358 C272.96789093 43.66476795 272.40714874 43.21875233 271.82941437 42.75922108 C271.27640656 42.2977367 270.72339874 41.83625233 270.15363312 41.36078358 C264.2162825 37.74072903 258.32995766 37.84781342 251.60361481 37.87352467 C250.01180635 37.86778635 250.01180635 37.86778635 248.38784015 37.8619321 C244.83201893 37.85161359 241.27635952 37.85559213 237.72052765 37.85956287 C235.17107748 37.85521577 232.62162862 37.85003262 230.0721817 37.8440752 C223.86593863 37.83206572 217.65975522 37.82953387 211.45350279 37.83187547 C206.40794273 37.83365945 201.3623958 37.83190727 196.31683731 37.82765102 C195.23913051 37.82675824 195.23913051 37.82675824 194.13965186 37.82584742 C192.68000691 37.82463565 191.22036196 37.82342152 189.76071702 37.82220504 C176.07551871 37.81133144 162.39034504 37.81349109 148.70514534 37.81958989 C136.19170501 37.82475836 123.67834254 37.81350515 111.1649176 37.79449167 C98.30966058 37.77510887 85.45444039 37.76685808 72.59916866 37.77061492 C65.38452077 37.77252637 58.16993915 37.77004501 50.95530319 37.75590038 C44.17060814 37.74273309 37.38609411 37.74525262 30.60139084 37.75831127 C28.11173195 37.76067975 25.62206214 37.75793269 23.13241577 37.74968815 C19.73282282 37.73924235 16.33375525 37.74730458 12.93418121 37.75999928 C11.45780455 37.74893785 11.45780455 37.74893785 9.9516021 37.73765296 C3.36659038 37.78935205 -2.54784097 38.49497195 -7.88152313 42.74750233 Z " fill="#000000" transform="translate(179.85808563232422,127.86577892303467)"/>
<path d="M0 0 C1.08166213 -0.00382555 2.16332425 -0.00765109 3.27776402 -0.01159257 C6.87314877 -0.021845 10.4683715 -0.0179452 14.06376648 -0.01396179 C16.65347948 -0.01831257 19.24319119 -0.02349693 21.832901 -0.02944946 C28.12000921 -0.0421531 34.40707463 -0.04399557 40.69419352 -0.0416492 C45.80870898 -0.03986091 50.92321153 -0.04162659 56.03772545 -0.04587364 C57.13263278 -0.04676643 57.13263278 -0.04676643 58.24965945 -0.04767724 C59.73288733 -0.04888909 61.21611522 -0.05010322 62.69934311 -0.05131962 C76.58742474 -0.06217858 90.47548206 -0.06004054 104.36356505 -0.05393478 C117.04399667 -0.04876779 129.72435143 -0.06001821 142.40476785 -0.07903299 C155.45231413 -0.09844698 168.49982411 -0.10666112 181.54738492 -0.10290974 C188.86163596 -0.101003 196.17582161 -0.10343357 203.49006081 -0.11762428 C210.37086603 -0.13083993 217.25151548 -0.12822987 224.1323204 -0.11521339 C226.65010188 -0.11285461 229.16789426 -0.11555712 231.68566322 -0.12383652 C254.07597712 -0.19212569 273.34995765 1.13271565 290.30473328 17.58882141 C302.47379073 31.10121638 306.12965321 46.69675841 305.83598328 64.44819641 C305.79473328 68.01632141 305.75348328 71.58444641 305.71098328 75.26069641 C292.84098328 75.26069641 279.97098328 75.26069641 266.71098328 75.26069641 C266.52348328 64.26069641 266.52348328 64.26069641 266.5032196 60.84272766 C266.30356857 54.35321085 265.49784541 48.96536058 260.71098328 44.26069641 C254.73155986 40.02744326 250.07745593 39.68688762 242.86260986 39.74603271 C241.78013204 39.73908719 240.69765422 39.73214166 239.58237404 39.72498566 C235.96040116 39.70671054 232.33908287 39.71698193 228.71708679 39.72724915 C226.1182252 39.72019098 223.51936772 39.71144641 220.92051697 39.70114136 C214.59740077 39.67952257 208.27446469 39.67962277 201.9513237 39.6877669 C196.81090445 39.69407223 191.67053764 39.692925 186.53011894 39.68649483 C185.43180017 39.68514234 185.43180017 39.68514234 184.31129314 39.68376254 C182.82370471 39.6819113 181.3361163 39.68004874 179.8485279 39.67817498 C165.90529803 39.66160384 151.96216941 39.67030978 138.01894563 39.68716056 C125.26948306 39.7018562 112.52025618 39.68722991 99.77082396 39.6583904 C86.67143426 39.62898051 73.57215328 39.61802878 60.47273201 39.6275726 C58.99037582 39.62859512 57.50801961 39.62958973 56.02566338 39.63055611 C55.29636477 39.6310325 54.56706616 39.63150889 53.81566759 39.63199971 C48.68366519 39.63416179 43.55176597 39.62437079 38.41978645 39.60978508 C31.50776092 39.59041388 24.59618049 39.59736851 17.68417358 39.62198448 C15.14775245 39.62699712 12.61129801 39.62349102 10.07490349 39.61083603 C6.61154413 39.59492337 3.14963135 39.60984213 -0.31365967 39.63250732 C-1.3166834 39.6206716 -2.31970713 39.60883587 -3.35312551 39.59664148 C-9.8401484 39.6828521 -14.41781515 40.81626777 -19.28901672 45.26069641 C-23.80064648 50.99106601 -23.86208112 55.9850283 -23.80368042 63.10906982 C-23.81062595 64.19154765 -23.81757148 65.27402547 -23.82472748 66.38930565 C-23.84300259 70.01127853 -23.8327312 73.63259682 -23.82246399 77.2545929 C-23.82952215 79.85345449 -23.83826673 82.45231197 -23.84857178 85.05116272 C-23.87019057 91.37427892 -23.87009037 97.697215 -23.86194623 104.02035599 C-23.85564091 109.16077524 -23.85678814 114.30114204 -23.86321831 119.44156075 C-23.86411996 120.17377326 -23.86502162 120.90598578 -23.8659506 121.66038655 C-23.86780184 123.14797498 -23.8696644 124.63556339 -23.87153815 126.12315179 C-23.88810929 140.06638166 -23.87940335 154.00951028 -23.86255258 167.95273406 C-23.84785693 180.70219663 -23.86248322 193.45142351 -23.89132274 206.20085572 C-23.92073262 219.30024543 -23.93168435 232.39952641 -23.92214054 245.49894768 C-23.92111801 246.98130387 -23.9201234 248.46366008 -23.91915703 249.94601631 C-23.91868064 250.67531492 -23.91820425 251.40461353 -23.91771342 252.1560121 C-23.91555135 257.2880145 -23.92534234 262.41991371 -23.93992805 267.55189323 C-23.95929925 274.46391877 -23.95234462 281.37549919 -23.92772865 288.2875061 C-23.92271602 290.82392724 -23.92622211 293.36038168 -23.93887711 295.8967762 C-23.95478977 299.36013555 -23.93987101 302.82204834 -23.91720581 306.28533936 C-23.92904154 307.28836308 -23.94087727 308.29138681 -23.95307165 309.3248052 C-23.86664597 315.82801081 -22.55491635 320.26001487 -18.28901672 325.26069641 C-12.30803953 330.09474233 -6.32581681 329.91145091 1.14848328 330.01069641 C4.96410828 330.09319641 8.77973328 330.17569641 12.71098328 330.26069641 C12.71098328 343.13069641 12.71098328 356.00069641 12.71098328 369.26069641 C-9.13697913 369.6289205 -27.72319433 369.55111962 -45.22651672 354.51069641 C-57.07978832 343.00605045 -63.11705623 328.23145057 -63.54349232 311.80767345 C-63.55560864 309.86237883 -63.55714306 307.91699786 -63.54971313 305.97167969 C-63.55353868 304.89001756 -63.55736423 303.80835543 -63.5613057 302.69391567 C-63.57155813 299.09853092 -63.56765833 295.50330819 -63.56367493 291.90791321 C-63.5680257 289.31820021 -63.57321007 286.7284885 -63.5791626 284.13877869 C-63.59186623 277.85167047 -63.5937087 271.56460506 -63.59136233 265.27748617 C-63.58957405 260.16297071 -63.59133972 255.04846816 -63.59558678 249.93395424 C-63.59647956 248.83904691 -63.59647956 248.83904691 -63.59739038 247.72202024 C-63.59860222 246.23879235 -63.59981636 244.75556447 -63.60103276 243.27233658 C-63.61189171 229.38425494 -63.60975368 215.49619763 -63.60364791 201.60811464 C-63.59848093 188.92768301 -63.60973135 176.24732826 -63.62874613 163.56691184 C-63.64816012 150.51936556 -63.65637425 137.47185558 -63.65262288 124.42429477 C-63.65071614 117.11004373 -63.6531467 109.79585808 -63.66733742 102.48161888 C-63.68055306 95.60081365 -63.677943 88.72016421 -63.66492653 81.83935928 C-63.66256774 79.32157781 -63.66527026 76.80378543 -63.67354965 74.28601646 C-63.74183882 51.89570256 -62.41699748 32.62172204 -45.96089172 15.66694641 C-32.75694858 3.77567598 -17.37634236 -0.06636699 0 0 Z " fill="#000000" transform="translate(78.28901672363281,14.739303588867188)"/>
</svg>
