<?xml version="1.0" encoding="UTF-8"?>
<svg version="1.1" xmlns="http://www.w3.org/2000/svg" viewbox="0 0 512 512">
<path d="M0 0 C1.05537964 -0.0071553 2.11075928 -0.01431061 3.19812012 -0.02168274 C4.35602554 -0.02437164 5.51393097 -0.02706055 6.70692444 -0.02983093 C7.92679047 -0.03640213 9.14665649 -0.04297333 10.40348816 -0.04974365 C14.45263412 -0.06950046 18.50174039 -0.08115096 22.55091858 -0.09111023 C23.94829897 -0.09515942 25.34567916 -0.09927639 26.74305916 -0.10346031 C33.31475394 -0.12251645 39.88643752 -0.13674168 46.45815462 -0.14507228 C54.02197499 -0.15482039 61.58550082 -0.18107408 69.14921755 -0.22157317 C75.0075936 -0.25185388 80.86588587 -0.26655276 86.72433859 -0.26985329 C90.21690132 -0.27219192 93.7091496 -0.28099432 97.20162773 -0.30631447 C101.10973606 -0.33418803 105.01746603 -0.32972772 108.92567444 -0.32279968 C110.06536179 -0.33560974 111.20504913 -0.3484198 112.37927246 -0.36161804 C125.9052955 -0.27471401 136.50919555 4.22995655 146.34388733 13.43623352 C157.08772835 24.60557319 160.29713037 37.09046698 160.02357483 52.20967102 C160.01455139 53.17066711 160.00552795 54.13166321 159.99623108 55.1217804 C159.97292691 57.46384907 159.94021541 59.80536894 159.89857483 62.14717102 C160.72161606 62.13828857 161.54465729 62.12940613 162.39263916 62.12025452 C170.2028294 62.03963476 178.01281386 61.97896842 185.82331371 61.93992233 C189.83743432 61.9191725 193.85120707 61.89109024 197.86512756 61.84541321 C201.74905051 61.80149923 205.63264188 61.77793953 209.5167942 61.76766205 C210.98816958 61.76035135 212.45952972 61.74607896 213.93076134 61.72425079 C229.10384417 61.50837656 242.42774524 64.53400808 253.92591858 74.99092102 C263.92930884 85.67287823 267.61789608 97.70947436 267.20716858 112.04170227 C266.61377775 122.59224039 262.57525092 131.10674833 255.89857483 139.14717102 C255.37521545 139.7942804 254.85185608 140.44138977 254.31263733 141.10810852 C248.91165164 147.14140472 241.50022412 150.61328792 233.89857483 153.14717102 C233.89797774 153.78646624 233.89738065 154.42576146 233.89676547 155.08442926 C233.86082769 193.02157796 233.80412155 230.95864324 233.72065388 268.89571819 C233.71063709 273.45658626 233.70079285 278.01745469 233.6910553 282.57832336 C233.68814324 283.94023417 233.68814324 283.94023417 233.68517235 285.32965833 C233.65419874 300.0075605 233.63718467 314.68544705 233.62538061 329.36337572 C233.61294497 344.43786279 233.58538927 359.51226825 233.54396176 374.58670378 C233.51889528 383.87937524 233.50545253 393.17191127 233.50714526 402.46461701 C233.50717514 408.84745343 233.49244401 415.23015248 233.46641055 421.6129353 C233.45184404 425.28883712 233.44349257 428.96445726 233.45277214 432.64038277 C233.50730038 457.10691764 231.91876597 478.17955187 213.79701233 496.48310852 C202.11855768 507.21721373 188.31607359 512.46676595 172.6157074 512.41459656 C171.60602893 512.41912767 170.59635047 512.42365878 169.55607569 512.4283272 C166.18630829 512.44094684 162.81670303 512.43935238 159.44691467 512.43769836 C157.02512912 512.44368521 154.60334548 512.45049112 152.18156433 512.45805359 C146.29310117 512.4738744 140.40467577 512.48016142 134.5161957 512.48127834 C129.72531087 512.48223087 124.93443917 512.48635138 120.1435585 512.4926796 C106.53802926 512.51028313 92.93253148 512.51952011 79.32699077 512.51801865 C78.59441722 512.51793874 77.86184367 512.51785882 77.10707092 512.51777649 C76.37359482 512.51769473 75.64011871 512.51761297 74.88441606 512.51752873 C63.00885235 512.51671657 51.1334157 512.53583882 39.25788872 512.56405322 C27.04212478 512.5928451 14.82642266 512.60658999 2.61062396 512.60486567 C-4.23868451 512.60420383 -11.08785985 512.60960479 -17.9371376 512.63122177 C-24.38372423 512.65143848 -30.83010308 512.65069566 -37.2767067 512.63618851 C-39.6348461 512.63410511 -41.99300327 512.63877308 -44.35111237 512.65090942 C-65.24876488 512.7514444 -80.98759759 510.30205956 -96.78111267 495.49873352 C-108.90825434 483.20826334 -115.49191741 467.6416901 -115.61775041 450.30488646 C-115.60027336 448.57427444 -115.60027336 448.57427444 -115.58244324 446.80870056 C-115.58586094 445.54308804 -115.58927864 444.27747552 -115.5927999 442.9735111 C-115.6016403 439.50466926 -115.58588986 436.03633214 -115.56568766 432.56755447 C-115.54826678 428.81043921 -115.5542696 425.05334796 -115.55729675 421.29620361 C-115.55938495 414.80133552 -115.5469319 408.3066293 -115.5243454 401.81180191 C-115.4917114 392.42162629 -115.48140678 383.03152821 -115.47639343 373.64130203 C-115.46765857 358.40297973 -115.44109232 343.16474351 -115.40318298 327.9264679 C-115.36641591 313.13187589 -115.33812719 298.33730735 -115.32115173 283.54267883 C-115.32010084 282.62934932 -115.31904995 281.71601981 -115.31796721 280.77501364 C-115.31274671 276.19269279 -115.30769196 271.61037178 -115.30271959 267.02805066 C-115.26131395 229.06769669 -115.19091507 191.10744058 -115.10142517 153.14717102 C-115.72011475 152.94719513 -116.33880432 152.74721924 -116.97624207 152.54118347 C-117.78744507 152.27564667 -118.59864807 152.01010986 -119.43443298 151.73652649 C-120.64090485 151.34375015 -120.64090485 151.34375015 -121.87174988 150.94303894 C-128.20379668 148.68285651 -133.70245289 144.14059902 -138.10142517 139.14717102 C-138.58224548 138.6083429 -139.0630658 138.06951477 -139.55845642 137.51435852 C-148.44119905 126.76511554 -150.34491446 114.83629652 -149.34068298 101.32685852 C-147.96907626 88.83124134 -140.92511071 78.84217415 -131.49205017 70.90107727 C-120.1321412 62.56676497 -108.83577794 61.85421586 -95.22642517 61.95185852 C-93.6908639 61.9555943 -92.15530023 61.9584386 -90.61973572 61.96043396 C-86.60186542 61.96802599 -82.58414251 61.98763577 -78.56632996 62.00984192 C-74.45695488 62.03039643 -70.34755572 62.03945611 -66.23814392 62.04951477 C-58.1925038 62.07088639 -50.14698288 62.10496802 -42.10142517 62.14717102 C-42.109935 61.45647018 -42.11844482 60.76576935 -42.12721252 60.05413818 C-42.16118674 56.8963719 -42.18219336 53.73864424 -42.20298767 50.58076477 C-42.21660339 49.49420593 -42.23021912 48.40764709 -42.24424744 47.28816223 C-42.30959616 34.05504571 -38.63812605 24.35430276 -29.66392517 14.45967102 C-28.81830017 13.69654602 -27.97267517 12.93342102 -27.10142517 12.14717102 C-26.62447205 11.66635071 -26.14751892 11.1855304 -25.65611267 10.69013977 C-19.02608468 4.36438842 -9.17824763 0.04271779 0 0 Z M-12.10142517 32.14717102 C-19.62403829 41.79154682 -17.10142517 48.42829038 -17.10142517 62.14717102 C33.05857483 62.14717102 83.21857483 62.14717102 134.89857483 62.14717102 C136.10031617 44.61616395 136.10031617 44.61616395 128.58607483 31.39717102 C120.11553611 24.30555721 112.25742407 23.99679259 101.53211975 24.00190735 C100.51328201 23.99854874 99.49444427 23.99519012 98.44473267 23.99172974 C95.08949043 23.98226083 91.73429833 23.98027866 88.37904358 23.97920227 C86.03645813 23.97598687 83.69387288 23.97262259 81.35128784 23.96911621 C76.44476354 23.9631351 71.53825682 23.96127527 66.63172913 23.96186829 C60.36085764 23.96196985 54.09009952 23.94831888 47.81925488 23.93109608 C42.98152148 23.91994904 38.14381525 23.91794991 33.30607033 23.91847801 C30.99493837 23.91730193 28.68380563 23.91290112 26.37268639 23.90514565 C23.1327825 23.89529119 19.89312174 23.89824534 16.6532135 23.9042511 C15.70898529 23.89863159 14.76475708 23.89301208 13.79191589 23.88722229 C3.74737697 23.93426891 -4.70166914 24.93539955 -12.10142517 32.14717102 Z M-120.91392517 96.43623352 C-124.55104142 101.67655233 -124.85333241 106.91300343 -124.10142517 113.14717102 C-122.30534705 119.24523268 -118.48169884 123.80842412 -113.10142517 127.14717102 C-109.00053316 128.72592987 -105.58820386 129.39827078 -101.20331097 129.40443993 C-100.04042763 129.41088882 -98.8775443 129.41733771 -97.67942208 129.42398202 C-95.77715402 129.41933622 -95.77715402 129.41933622 -93.8364563 129.41459656 C-92.46825593 129.41833476 -91.1000577 129.42293696 -89.73186284 129.4283272 C-85.97744739 129.4405516 -82.22312109 129.44029741 -78.46869028 129.43793845 C-74.41744705 129.43753014 -70.36623236 129.44857075 -66.31500244 129.45805359 C-58.37987685 129.47466139 -50.44478098 129.48016303 -42.50963946 129.48127834 C-36.05914939 129.48222891 -29.60866912 129.4863396 -23.15818214 129.4926796 C-4.8671576 129.51029126 13.42384348 129.51951856 31.71487657 129.51801865 C32.70080217 129.51793874 33.68672777 129.51785882 34.70252991 129.51777649 C35.68966021 129.51769473 36.67679051 129.51761297 37.69383385 129.51752873 C53.69206575 129.51671581 69.69020351 129.53585521 85.68840817 129.56405322 C102.11789859 129.59278276 118.5473431 129.60659348 134.97685927 129.60486567 C144.19972979 129.6042018 153.42250161 129.60969273 162.6453495 129.63122177 C170.49778092 129.64943446 178.3500689 129.65378018 186.2025123 129.64020292 C190.20772143 129.63367375 194.21265536 129.63355407 198.21783829 129.65090942 C201.88762687 129.66664768 205.55692223 129.66376928 209.22669884 129.64634116 C211.17626115 129.64182433 213.1258388 129.65692271 215.07534152 129.67282045 C222.89688757 129.6113709 229.78863834 128.89820836 235.77056342 123.43865335 C240.73809415 118.15073137 242.41253679 112.63583979 242.20716858 105.44795227 C241.32263755 98.85315764 237.76659973 94.51782743 232.77748108 90.37373352 C228.63193917 87.66749618 225.00139788 86.89676478 220.0894804 86.88990211 C218.92100463 86.88345322 217.75252885 86.87700433 216.54864472 86.87036002 C215.26908916 86.87345722 213.98953359 86.87655442 212.67120361 86.87974548 C211.29490402 86.87600849 209.91860655 86.87140677 208.54231244 86.86601484 C204.7609041 86.8537754 200.97958417 86.85404641 197.19816053 86.85640359 C193.11965213 86.85681152 189.04117217 86.84577489 184.962677 86.83628845 C176.97227029 86.81967228 168.98189308 86.81417863 160.99147054 86.8130637 C154.49661159 86.81211351 148.00176238 86.80800468 141.50690651 86.80166245 C123.09423313 86.7840483 104.68158306 86.77482384 86.26890119 86.77632339 C84.77980961 86.77644326 84.77980961 86.77644326 83.26063538 86.77656555 C82.26669603 86.77664731 81.27275669 86.77672907 80.24869797 86.77681331 C64.13979626 86.77762625 48.03098805 86.75848717 31.92211338 86.73028882 C15.38304829 86.7015658 -1.15597119 86.68774821 -17.69506186 86.68947637 C-26.98107233 86.69014048 -36.26698478 86.68463917 -45.55297279 86.66312027 C-53.45925552 86.64491612 -61.36539581 86.64055481 -69.27169041 86.65413912 C-73.3051217 86.66067269 -77.33827967 86.66077212 -81.37168503 86.64343262 C-85.06613254 86.62771372 -88.76008973 86.63055299 -92.4545252 86.64800088 C-94.41978636 86.65252589 -96.38506266 86.63740412 -98.35026485 86.62152159 C-108.08607457 86.6976468 -114.75521693 88.50354954 -120.91392517 96.43623352 Z M-91.10142517 154.14717102 C-91.14267517 202.40967102 -91.18392517 250.67217102 -91.22642517 300.39717102 C-91.24463318 315.63679016 -91.26284119 330.8764093 -91.28160095 346.57783508 C-91.28828978 360.23722794 -91.28828978 360.23722794 -91.29231262 373.8966217 C-91.29417607 379.98111011 -91.3015056 386.0655617 -91.31257629 392.15003967 C-91.32533415 399.17220981 -91.3310907 406.19434469 -91.32831507 413.21652649 C-91.3271136 416.80634285 -91.32897848 420.39608047 -91.33985543 423.98588228 C-91.35145637 427.83819749 -91.34739427 431.69040915 -91.3419342 435.54273987 C-91.34775953 436.65140285 -91.35358486 437.76006584 -91.35958672 438.90232468 C-91.3024658 453.94139676 -89.11320932 466.81803473 -78.47251892 477.94795227 C-68.95368509 486.77678826 -58.30502654 488.30367627 -45.71586609 488.28088379 C-44.79067995 488.28314935 -43.86549382 488.2854149 -42.91227174 488.28774911 C-39.82264079 488.294062 -36.73305402 488.29326149 -33.64341736 488.29243469 C-31.42380721 488.29542789 -29.20419757 488.29883079 -26.98458862 488.3026123 C-20.96172658 488.31144053 -14.93887875 488.31378994 -8.91601086 488.31442809 C-5.15076996 488.3151393 -1.38553267 488.31727499 2.37970734 488.31992531 C14.84424835 488.32869792 27.30878246 488.33334551 39.77332619 488.33259483 C40.4445264 488.33255488 41.11572662 488.33251492 41.80726624 488.33247375 C42.81530468 488.33241243 42.81530468 488.33241243 43.84370753 488.33234987 C54.72870998 488.33194364 65.61367781 488.3415088 76.49867025 488.35561212 C87.69171854 488.36999942 98.88475417 488.37669815 110.07781291 488.37601835 C116.35523323 488.37576371 122.63261436 488.37859566 128.91002655 488.3891964 C134.81648106 488.39889848 140.72285908 488.39894205 146.62931633 488.39167976 C148.79197998 488.39063653 150.95464844 488.39298127 153.11730385 488.39904022 C176.53299374 488.81999008 176.53299374 488.81999008 196.64857483 478.02217102 C205.94550368 467.95599274 208.20560731 457.02554757 208.13908386 443.84030151 C208.14079271 442.60108773 208.14250156 441.36187394 208.14426219 440.08510822 C208.14698147 436.65756256 208.14075158 433.2302466 208.13070607 429.80272877 C208.12205352 426.10206753 208.12499301 422.40141314 208.12651062 418.70074463 C208.12755833 412.29311004 208.12129365 405.88551625 208.11003494 399.47789192 C208.09376745 390.21359645 208.08857066 380.94932066 208.08605896 371.68501245 C208.08168382 356.65358864 208.06837962 341.62218655 208.04945374 326.59077454 C208.03109026 311.99084073 208.01695898 297.39091285 208.00843811 282.79096985 C208.00790212 281.88155992 208.00736612 280.97214999 208.00681388 280.03518218 C208.00265494 272.92279365 207.99874112 265.81040499 207.99490476 258.69801629 C207.97604403 223.84771458 207.93580584 188.99746729 207.89857483 154.14717102 C109.22857483 154.14717102 10.55857483 154.14717102 -91.10142517 154.14717102 Z " fill="current" transform="translate(197.10142517089844,-0.1471710205078125)"/>
<path d="M0 0 C3.24044458 2.56535196 4.69560167 4.086805 6 8 C6.10085454 11.06277557 6.14341145 14.10293317 6.14044189 17.16596985 C6.14341302 18.11576743 6.14638414 19.06556501 6.1494453 20.04414433 C6.15814741 23.24078278 6.15964182 26.43738384 6.16113281 29.6340332 C6.1657599 31.92027873 6.17078441 34.20652349 6.17617798 36.49276733 C6.1893141 42.71386824 6.19574924 48.93495834 6.20018864 55.15607095 C6.20311726 59.04051818 6.20722166 62.92496245 6.21169281 66.80940819 C6.22380292 77.56420592 6.23418467 88.31899977 6.2375679 99.0738039 C6.23778747 99.76214259 6.23800703 100.45048127 6.23823325 101.15967871 C6.23845153 101.84966453 6.23866981 102.53965036 6.2388947 103.25054485 C6.23933817 104.64871935 6.23978473 106.04689386 6.24023438 107.44506836 C6.2404558 108.13861123 6.24067723 108.83215411 6.24090537 109.54671343 C6.24485338 120.78455553 6.26230754 132.02233277 6.2855939 143.26014981 C6.30930839 154.79770575 6.32151181 166.33521991 6.32293582 177.87280148 C6.32398523 184.35079414 6.32992201 190.82869536 6.34775543 197.30666542 C6.3642017 203.39939161 6.36640832 209.49195728 6.35761642 215.58469772 C6.35684422 217.82202648 6.36121282 220.05936375 6.37107468 222.29667091 C6.38374096 225.3489995 6.3779461 228.40075496 6.36749268 231.45307922 C6.37554908 232.34014677 6.38360548 233.22721431 6.39190602 234.14116269 C6.34488811 240.00410993 5.51460329 244.48539671 1.1875 248.8125 C-2.6793201 250.91163091 -5.76513249 251.25201378 -10.0625 250.375 C-13.54235262 248.74613281 -15.54605862 246.94472966 -18 244 C-18.89940634 241.26835407 -19.12630546 238.78097994 -19.13142776 235.91695595 C-19.13526891 235.10802757 -19.13911005 234.29909919 -19.1430676 233.46565783 C-19.14220112 232.58259286 -19.14133463 231.69952789 -19.14044189 230.78970337 C-19.14341302 229.84721847 -19.14638414 228.90473357 -19.1494453 227.93368852 C-19.15813402 224.76779513 -19.15964068 221.60193954 -19.16113281 218.43603516 C-19.1657608 216.1693463 -19.17078543 213.90265823 -19.17617798 211.63597107 C-19.18930434 205.47277878 -19.1957472 199.30959738 -19.20018864 193.1463933 C-19.20311849 189.29762023 -19.20722309 185.44885015 -19.21169281 181.60007858 C-19.22380052 170.94217581 -19.23418339 160.28427668 -19.2375679 149.62636757 C-19.23778747 148.94449923 -19.23800703 148.26263088 -19.23823325 147.56009986 C-19.23845153 146.87661203 -19.23866981 146.1931242 -19.2388947 145.48892462 C-19.23933817 144.10394454 -19.23978473 142.71896446 -19.24023438 141.33398438 C-19.2404558 140.64698823 -19.24067723 139.95999209 -19.24090537 139.25217788 C-19.24485427 128.11786352 -19.26231217 116.98361458 -19.2855939 105.84932549 C-19.30930847 94.4156978 -19.32151178 82.98211765 -19.32293582 71.54846227 C-19.32398512 65.12972897 -19.32991982 58.71108796 -19.34775543 52.29237747 C-19.36420176 46.2562711 -19.3664083 40.22032676 -19.35761642 34.18420601 C-19.35684425 31.9678396 -19.36121235 29.75146461 -19.37107468 27.53512001 C-19.38374195 24.51130705 -19.37794561 21.48807253 -19.36749268 18.46426392 C-19.37957728 17.14635862 -19.37957728 17.14635862 -19.39190602 15.80182898 C-19.35129369 10.78436922 -18.76732308 7.35605473 -16 3 C-11.0980035 -1.44243433 -6.19291344 -1.60798454 0 0 Z " fill="current" transform="translate(333,186)"/>
<path d="M0 0 C4.23670556 3.1549935 5.69003994 5.97006607 7 11 C7.27852395 14.11207223 7.27434285 17.2072482 7.26069641 20.33018494 C7.26452196 21.26142246 7.26834751 22.19265999 7.27228898 23.15211684 C7.28259592 26.26805417 7.27863119 29.38380644 7.2746582 32.49975586 C7.27900593 34.73556183 7.28418928 36.97136631 7.29014587 39.20716858 C7.30354006 45.27735441 7.3041141 51.347478 7.30158257 57.41767573 C7.30051323 62.48490639 7.30539527 67.55212444 7.310188 72.6193524 C7.32191894 85.256455 7.32105724 97.89351949 7.31463119 110.53062154 C7.30946179 121.49924198 7.32071887 132.46777362 7.33972941 143.4363765 C7.35911192 154.70622065 7.36707175 165.97602393 7.36360615 177.24588877 C7.36179226 183.57016097 7.3644402 189.89435182 7.37832069 196.21861076 C7.39088409 202.16529321 7.38896889 208.11179773 7.37590981 214.0584774 C7.37354131 216.24055796 7.37628846 218.42265099 7.38453293 220.60471725 C7.39497865 223.58429565 7.38691691 226.56327461 7.3742218 229.54283142 C7.38159609 230.40548502 7.38897037 231.26813863 7.39656812 232.15693325 C7.3387951 238.60601515 6.35003606 243.58644946 1.6875 248.375 C-1.43937274 250.26566724 -3.33995537 250.92679911 -7 251 C-12.20736913 249.38391993 -15.1532307 247.65747364 -18 243 C-18.57772618 239.82249363 -18.53558434 236.69527626 -18.50120544 233.47290039 C-18.50673984 232.50843774 -18.51227424 231.54397509 -18.51797634 230.55028629 C-18.53159868 227.31581483 -18.51660463 224.08211286 -18.50170898 220.84765625 C-18.50549157 218.52993441 -18.51099111 216.21221482 -18.51808167 213.89450073 C-18.53206128 207.59704542 -18.52084869 201.29986256 -18.50437045 195.00242233 C-18.4905364 188.41705858 -18.49697816 181.83171092 -18.50050354 175.24633789 C-18.50393748 164.18664314 -18.48980617 153.12705088 -18.46655273 142.06738281 C-18.44263207 130.68908666 -18.43554852 119.31093397 -18.44604492 107.93261719 C-18.45867211 94.21992616 -18.45616286 80.50733613 -18.44038582 66.79464722 C-18.43462206 61.55710297 -18.43471178 56.31960673 -18.43945122 51.08206177 C-18.44421787 44.91623295 -18.43413199 38.75060312 -18.41249657 32.58481216 C-18.40692432 30.31965938 -18.40646739 28.0544875 -18.41144943 25.78933334 C-18.4173896 22.70170007 -18.40492102 19.61467778 -18.38768005 16.52709961 C-18.3936901 15.62681062 -18.39970014 14.72652163 -18.40589231 13.79895115 C-18.35752693 9.04860596 -18.11428297 5.83958863 -15 2 C-10.11479769 -1.48943022 -5.62106286 -1.69046724 0 0 Z " fill="current" transform="translate(191,186)"/>
<path d="M0 0 C2.70552388 2.19823815 4.44778333 3.89556667 6 7 C6.10710598 10.06043527 6.15222275 13.09856368 6.15390015 16.15960693 C6.1582824 17.12080075 6.16266465 18.08199456 6.1671797 19.07231545 C6.18060177 22.3135117 6.18675419 25.55468074 6.19287109 28.79589844 C6.20076934 31.11155318 6.20903812 33.42720669 6.21765137 35.74285889 C6.24390239 43.36501891 6.25918156 50.98718452 6.2734375 58.609375 C6.27879581 61.22994236 6.28417332 63.85050968 6.28956985 66.47107697 C6.31120262 77.36908899 6.33009207 88.26709869 6.34119225 99.1651268 C6.34412199 101.99387364 6.34708365 104.82262044 6.35009766 107.65136719 C6.35084371 108.35444741 6.35158976 109.05752763 6.35235842 109.78191331 C6.36501249 121.17182874 6.39823566 132.56158808 6.43989949 143.95143053 C6.48231543 155.64263509 6.5054792 167.33375145 6.51111281 179.02503228 C6.51477199 185.59030497 6.52685385 192.15531313 6.55921555 198.72051239 C6.58922035 204.89619772 6.59563486 211.0714574 6.58383179 217.24720001 C6.58361042 219.51517826 6.59196717 221.78317583 6.60948563 224.05108643 C6.63208844 227.14539321 6.62392273 230.23814494 6.60800171 233.3324585 C6.6218838 234.23188101 6.63576588 235.13130352 6.65006864 236.05798125 C6.59563651 240.34581876 6.3352285 243.13371336 3.58651161 246.5336647 C0.18172755 249.7802533 -2.32616379 250.87560132 -7 251 C-12.21267769 249.52307465 -15.09791386 247.5763666 -18 243 C-18.84937946 240.26964818 -19.12571463 237.81488088 -19.12863445 234.96380806 C-19.1318589 234.16532987 -19.13508335 233.36685168 -19.1384055 232.54417717 C-19.1368569 231.67278505 -19.1353083 230.80139292 -19.13371277 229.90359497 C-19.13597833 228.97336073 -19.13824388 228.04312649 -19.14057809 227.08470333 C-19.14692018 223.96026494 -19.14608859 220.8358699 -19.14526367 217.71142578 C-19.14825502 215.47429345 -19.1516575 213.23716164 -19.15544128 211.00003052 C-19.16428773 204.91741112 -19.16661966 198.83480578 -19.16725707 192.75218058 C-19.16820576 187.67750362 -19.17188359 182.60282995 -19.17542917 177.52815425 C-19.18311058 166.24137952 -19.18609756 154.95461144 -19.18542381 143.66783489 C-19.18538386 142.99063785 -19.1853439 142.31344082 -19.18530273 141.61572266 C-19.18526185 140.93769836 -19.18522097 140.25967406 -19.18517885 139.56110357 C-19.18477239 128.57230156 -19.19434223 117.58353381 -19.2084411 106.59474172 C-19.22280504 95.31028055 -19.22952813 84.02583559 -19.22884732 72.74136341 C-19.22859211 66.40648991 -19.23145643 60.07165519 -19.24202538 53.7367897 C-19.25169277 47.77950259 -19.25179484 41.82229144 -19.24450874 35.86500168 C-19.24346122 33.67766459 -19.24583567 31.4903228 -19.2518692 29.30299377 C-19.25956837 26.3186968 -19.25495797 23.33466347 -19.24723816 20.35037231 C-19.25238172 19.48344163 -19.25752529 18.61651095 -19.26282471 17.72330964 C-19.22787521 11.61547242 -18.70661257 6.96916835 -14.5625 2.1875 C-9.98906093 -1.71665531 -5.59640817 -1.46292073 0 0 Z " fill="current" transform="translate(262,186)"/>
</svg>
