<?xml version="1.0" encoding="UTF-8"?>
<svg version="1.1" xmlns="http://www.w3.org/2000/svg" viewbox="0 0 512 512">
<path d="M0 0 C9.99164692 8.03072897 18.81953129 17.66386069 27.87060547 26.70947266 C29.6683334 28.50256555 31.46625635 30.29546294 33.26435852 32.08818054 C38.12384162 36.9346131 42.98006563 41.78429686 47.83523703 46.63504839 C50.8704038 49.66744015 53.90630187 52.69909904 56.94232559 55.73063278 C65.36158248 64.13771713 73.77990652 72.5457331 82.19477654 80.95720863 C82.73149194 81.49370447 83.26820734 82.03020031 83.82118685 82.58295359 C84.35909949 83.12064796 84.89701213 83.65834233 85.45122516 84.21233046 C86.5410496 85.30171144 87.63087559 86.39109087 88.72070312 87.48046875 C89.26128137 88.02082557 89.80185962 88.56118238 90.35881902 89.11791365 C99.13479634 97.88993563 107.91751802 106.65517191 116.70313357 115.41753967 C125.74016541 124.43085217 134.77155546 133.4497857 143.79731858 142.47438276 C148.85850461 147.53465316 153.92206854 152.59249155 158.99187851 157.64412308 C163.75448178 162.38970758 168.50933088 167.14292593 173.25903893 171.9014225 C175.00275194 173.64590707 176.74903315 175.38782892 178.49806023 177.12698555 C180.88533632 179.50157662 183.26317463 181.88523914 185.6388855 184.27139282 C186.33245647 184.95690739 187.02602745 185.64242196 187.74061573 186.3487097 C194.79775855 193.47860161 198.11735866 199.62504445 198.25 209.75 C197.99544258 228.70473689 180.83838055 240.31517522 168.29052734 252.87060547 C166.49743445 254.6683334 164.70453706 256.46625635 162.91181946 258.26435852 C158.0653869 263.12384162 153.21570314 267.98006563 148.36495161 272.83523703 C145.33255985 275.8704038 142.30090096 278.90630187 139.26936722 281.94232559 C130.86228287 290.36158248 122.4542669 298.77990652 114.04279137 307.19477654 C113.50629553 307.73149194 112.96979969 308.26820734 112.41704641 308.82118685 C111.87935204 309.35909949 111.34165767 309.89701213 110.78766954 310.45122516 C109.69828856 311.5410496 108.60890913 312.63087559 107.51953125 313.72070312 C106.97917443 314.26128137 106.43881762 314.80185962 105.88208635 315.35881902 C97.11006437 324.13479634 88.34482809 332.91751802 79.58246033 341.70313357 C70.56914783 350.74016541 61.5502143 359.77155546 52.52561724 368.79731858 C47.46534684 373.85850461 42.40750845 378.92206854 37.35587692 383.99187851 C32.61029242 388.75448178 27.85707407 393.50933088 23.0985775 398.25903893 C21.35409293 400.00275194 19.61217108 401.74903315 17.87301445 403.49806023 C15.49842338 405.88533632 13.11476086 408.26317463 10.72860718 410.6388855 C10.04309261 411.33245647 9.35757804 412.02602745 8.6512903 412.74061573 C1.52139839 419.79775855 -4.62504445 423.11735866 -14.75 423.25 C-26.73599687 423.06464953 -32.10408544 418.71277773 -40.40917969 410.546875 C-41.98880518 409.01088557 -43.60177523 407.51924416 -45.2265625 406.03125 C-53.63628473 398.2000836 -60.14962184 390.33677112 -60.625 378.3125 C-59.8209476 363.33925757 -48.7617296 354.60886821 -38.75024414 344.63671875 C-37.73423112 343.62098841 -36.71843945 342.60503663 -35.70285034 341.58888245 C-32.96798237 338.85372964 -30.23006034 336.12165319 -27.49154592 333.39015198 C-24.62166361 330.52655588 -21.75464646 327.66009401 -18.88731384 324.79394531 C-13.46736924 319.37709858 -8.04488246 313.96280422 -2.62145942 308.54944038 C3.55711516 302.38207509 9.73282255 296.21184209 15.90830028 290.04137611 C28.60236382 277.35774195 41.2999926 264.67768249 54 252 C52.92337732 251.99796521 52.92337732 251.99796521 51.8250047 251.99588931 C9.27880819 251.915227 -33.26735547 251.82426736 -75.81350087 251.71994839 C-80.92286759 251.70742962 -86.03223451 251.69499683 -91.14160156 251.68261719 C-92.66736636 251.6789182 -92.66736636 251.6789182 -94.22395469 251.67514448 C-110.69066626 251.63542837 -127.15738467 251.60267594 -143.62411617 251.57250018 C-160.52239048 251.54137849 -177.42063572 251.50276599 -194.31887734 251.45720994 C-204.74470979 251.42933869 -215.17052099 251.40729972 -225.59638067 251.39273749 C-232.74723952 251.3821897 -239.89805721 251.36436118 -247.04888503 251.34083296 C-251.17357823 251.32747578 -255.29821378 251.31730422 -259.42292976 251.31578636 C-263.20331071 251.31432419 -266.98355295 251.3036664 -270.76389123 251.28586559 C-272.77063323 251.27876021 -274.77740243 251.28134384 -276.78415477 251.28433573 C-287.79925431 251.21624776 -297.52587406 250.64777714 -306 243 C-311.89152799 235.83428715 -314.30928554 229.50524049 -314.37109375 220.33203125 C-314.38012222 219.49717697 -314.3891507 218.66232269 -314.39845276 217.8021698 C-314.41292767 216.03798998 -314.42183513 214.27375681 -314.42553711 212.50952148 C-314.43738652 209.83808403 -314.48655594 207.16899421 -314.53710938 204.49804688 C-314.63587034 194.21323698 -314.41067768 185.78951866 -307.02294922 177.88452148 C-297.23663031 168.48970569 -286.08397901 168.85141862 -273.25050354 168.84178162 C-271.84202861 168.83721165 -270.43355502 168.832211 -269.02508301 168.82681805 C-265.16436629 168.813277 -261.30365835 168.80583031 -257.44292414 168.79939139 C-253.27599032 168.79136967 -249.10907466 168.77767801 -244.94215393 168.76467896 C-237.72586703 168.74294131 -230.50957827 168.72478692 -223.29327583 168.70907402 C-212.85974486 168.68635068 -202.426234 168.65821127 -191.99272012 168.62875474 C-175.06457296 168.58110904 -158.13641756 168.53783667 -141.20825195 168.49731445 C-124.76521158 168.45794415 -108.32217852 168.41651424 -91.87915039 168.37231445 C-90.35854124 168.36822804 -90.35854124 168.36822804 -88.80721272 168.36405908 C-83.72152284 168.35037935 -78.63583307 168.33665913 -73.55014336 168.32291877 C-31.36677749 168.20900147 10.81660417 168.10218163 53 168 C52.45923513 167.46292231 51.91847027 166.92584461 51.36131859 166.37249184 C38.178932 153.27860146 25.00775311 140.17353328 11.84882164 127.05607033 C5.48488504 120.71272273 -0.88273243 114.37315572 -7.25927734 108.04248047 C-12.81973449 102.52200333 -18.37302629 96.99443311 -23.91797578 91.4583782 C-26.85181688 88.52973295 -29.78902446 85.60466086 -32.73485184 82.68806839 C-35.51296072 79.93730516 -38.28132217 77.17708441 -41.0428009 74.40962982 C-42.05268047 73.40084198 -43.06593892 72.39542235 -44.08297348 71.39384842 C-52.86180734 62.74186043 -59.92451414 54.68474119 -60.4375 42 C-60.49808594 40.96875 -60.55867187 39.9375 -60.62109375 38.875 C-58.84637053 27.802513 -51.97241653 20.07759652 -44.125 12.5625 C-43.26519531 11.70462891 -42.40539062 10.84675781 -41.51953125 9.96289062 C-30.4451078 -0.88466679 -15.24227833 -9.198983 0 0 Z " fill="current" transform="translate(314,46)"/>
</svg>
